<svg width="179" height="152" viewBox="0 0 179 152" fill="none" xmlns="http://www.w3.org/2000/svg">
<path d="M141.863 8.48941C141.863 8.48941 145.083 7.57937 149.739 7.50937C153.239 7.43936 157.579 7.82439 161.989 9.39947C162.602 9.66198 163.179 9.9945 163.669 10.3795C166.207 12.3571 167.03 15.8398 165.472 18.9374L158.069 32.9907C158.069 32.9907 176.813 46.2739 173.172 67.835C170.355 84.6533 158.647 111.097 125.692 130.751C121.02 133.533 116.312 135.931 111.604 137.944C95.871 144.611 79.8052 146.921 63.2668 144.524C48.7236 142.406 34.9329 136.036 24.9749 129.018C17.537 123.785 12.2692 118.203 10.3966 113.74C8.87403 110.152 8.89154 107.369 9.81909 105.252C11.6392 101.017 17.0469 99.5641 20.9146 100.107C24.2923 100.579 32.2552 101.087 42.4407 100.107C43.9808 99.9666 45.5909 99.7916 47.2185 99.5641C59.9066 97.8665 75.1324 93.8413 89.1506 85.1433C90.4457 84.3383 91.7582 83.4807 93.0358 82.5882C107.894 72.1752 126.918 45.6613 136.123 36.5959C137.261 35.4583 138.276 34.5832 139.081 34.0582C139.081 34.0582 136.526 19.6375 136.071 16.6973C135.335 11.8671 138.171 9.59197 141.863 8.48941Z" fill="#FDD907"/>
<path d="M20.9321 100.054C17.0294 99.5115 11.6391 100.982 9.83653 105.199C8.90898 107.317 8.89147 110.1 10.414 113.687C12.3041 118.132 17.5894 123.733 24.9923 128.965C34.9503 135.983 48.741 142.354 63.2843 144.471C79.8051 146.886 95.8884 144.559 111.622 137.891C116.347 135.896 121.037 133.481 125.71 130.698C130.75 127.688 135.265 124.538 139.361 121.283C162.024 103.204 170.792 82.0456 173.19 67.7823C176.83 46.2212 158.087 32.9381 158.087 32.9381L165.489 18.8849C167.03 15.7697 166.207 12.287 163.687 10.3269C163.197 9.94189 162.637 9.62688 162.007 9.34686C157.614 7.78928 153.274 7.40426 149.756 7.45676C147.831 7.49176 146.168 7.64929 144.873 7.8593C143.018 8.13931 141.898 8.45432 141.898 8.45432C138.206 9.55688 135.388 11.8495 136.105 16.5922C136.578 19.5499 139.116 33.9531 139.116 33.9531C138.293 34.4957 137.296 35.3532 136.158 36.4907C126.952 45.5562 107.947 72.0876 93.0708 82.4831C91.7932 83.3756 90.4806 84.2332 89.1681 85.0557C75.1849 93.7537 59.9241 97.7789 47.2709 99.4765C45.6083 99.704 44.0333 99.879 42.4757 100.036C32.2902 101.017 24.3097 100.527 20.9321 100.054Z" fill="#FDD907"/>
<path d="M20.932 100.054C17.0293 99.5115 11.639 100.982 9.83645 105.199C8.90891 107.317 8.89139 110.1 10.414 113.687C12.3041 118.133 17.5893 123.733 24.9922 128.966C34.9502 135.983 48.7409 142.354 63.2842 144.471C79.805 146.886 95.8883 144.559 111.622 137.891C111.989 137.734 112.392 137.576 112.742 137.401C117.082 135.511 121.405 133.253 125.692 130.716C130.733 127.705 135.248 124.555 139.343 121.3C148.986 113.617 156.109 105.374 161.289 97.3239C168.325 86.4734 171.79 76.0078 173.172 67.7999C176.812 46.2388 158.069 32.9557 158.069 32.9557L165.472 18.9024C167.012 15.7873 166.189 12.3046 163.669 10.3445C163.179 9.95947 162.619 9.64446 161.989 9.36444C157.596 7.80686 153.256 7.42186 149.739 7.47436C147.813 7.50936 146.151 7.66686 144.856 7.87688C143.001 8.15689 141.881 8.4719 141.881 8.4719C138.188 9.57445 135.37 11.8671 136.088 16.6098C136.56 19.5675 139.098 33.9707 139.098 33.9707C138.275 34.5132 137.278 35.3708 136.14 36.5083C132.71 39.9035 127.915 45.7138 122.455 52.2241C113.319 63.1447 102.364 75.9903 93.0532 82.5007C91.7756 83.3932 90.4631 84.2508 89.1505 85.0733C76.1473 93.1412 62.0591 97.1839 49.966 99.0915C49.0385 99.249 48.1109 99.3715 47.2184 99.494C45.5558 99.7215 43.9807 99.8966 42.4231 100.054C32.2901 101.017 24.3097 100.527 20.932 100.054Z" fill="#FDD907"/>
<path d="M139.343 121.3C135.266 124.538 130.733 127.705 125.693 130.716C121.405 133.288 117.082 135.511 112.742 137.401C112.374 137.593 111.989 137.733 111.622 137.891C95.8885 144.559 79.8052 146.886 63.2843 144.471C60.7117 144.104 58.1741 143.596 55.6539 142.966C43.9808 140.079 33.1653 134.723 24.9749 128.948C17.5545 123.698 12.2517 118.115 10.3966 113.67C8.87405 110.082 8.89154 107.299 9.83658 105.164C11.6567 100.929 17.047 99.459 20.9497 100.002C23.1198 100.317 27.18 100.632 32.5003 100.562C35.4754 100.527 38.8181 100.369 42.4583 100.019C44.0159 99.8965 45.6084 99.704 47.271 99.4765C48.1635 99.354 49.0911 99.2314 50.0011 99.0914C62.0943 97.1838 76.1825 93.1411 89.1857 85.0732C90.4807 84.2332 91.7758 83.3931 93.0709 82.5181C102.364 75.9903 113.319 63.1446 122.455 52.2241C127.898 45.7312 132.71 39.9034 136.141 36.5082C137.278 35.3707 138.293 34.4956 139.098 33.9706C139.098 33.9706 136.543 19.5849 136.088 16.6097C135.353 11.8495 138.171 9.59188 141.881 8.47182C141.881 8.47182 143.001 8.15681 144.856 7.87679C146.169 7.68428 147.831 7.52678 149.739 7.47428C153.274 7.40427 157.597 7.80678 161.989 9.36436C162.619 9.64438 163.162 9.97689 163.669 10.3444C166.19 12.3045 167.012 15.7872 165.472 18.9023L158.069 32.9556C158.069 32.9556 176.813 46.2387 173.172 67.7998C171.79 76.0078 168.29 86.4733 161.289 97.3239C156.109 105.374 148.986 113.617 139.343 121.3Z" fill="#FDD907"/>
<path d="M55.6714 142.984C43.9983 140.096 33.1827 134.741 24.9923 128.965C17.5719 123.715 12.2692 118.132 10.4141 113.687C8.89149 110.099 8.90898 107.317 9.85403 105.182C11.6741 100.947 17.0644 99.4765 20.9671 100.019C23.1372 100.334 27.1974 100.649 32.5177 100.579C30.4176 105.094 29.49 113.057 44.1733 116.645C43.6308 116.767 29.5076 119.9 36.2804 128.598C42.7032 136.946 52.3112 141.549 55.6714 142.984Z" fill="#F9B00D"/>
<path d="M50.0011 99.0915C54.0788 102.434 58.419 106.319 62.8642 110.765C74.3798 122.245 87.1555 122.595 96.1859 109.014C98.391 111.605 104.481 110.24 107.929 107.562C110.992 114.265 114.142 118.675 114.142 118.675C110.239 122.893 111.009 130.803 112.742 137.401C117.082 135.511 121.405 133.253 125.692 130.716C130.733 127.705 135.248 124.555 139.343 121.3C148.986 113.617 156.109 105.374 161.289 97.3239C152.276 86.8758 134.898 71.2475 122.437 52.2066C113.302 63.1271 102.346 75.9728 93.0358 82.4831C91.7582 83.3756 90.4456 84.2332 89.1331 85.0557C76.1649 93.1587 62.0767 97.2014 50.0011 99.0915Z" fill="#F9B00D"/>
<g opacity="0.7">
<path d="M144.856 7.87678C151.786 9.59186 160.239 12.5845 158.927 16.8372C154.744 30.4704 146.693 34.5306 146.693 34.5306C146.693 34.5306 162.812 41.2685 163.809 62.3221C164.824 83.3931 133.97 113.827 133.97 113.827L139.343 121.265C162.007 103.187 170.775 82.0281 173.172 67.7648C176.813 46.2037 158.069 32.9205 158.069 32.9205L165.472 18.8673C167.012 15.7522 166.189 12.2695 163.669 10.3094C163.179 9.92437 162.619 9.60935 161.989 9.32934C157.597 7.77176 153.256 7.38674 149.739 7.43924C147.831 7.52675 146.151 7.70177 144.856 7.87678Z" fill="white"/>
</g>
<g opacity="0.5">
<path d="M69.1469 98.1463C82.0101 93.8236 104.831 83.3231 120.005 60.2044C120.95 58.7693 123.225 59.5044 122.857 61.132C121.195 68.8149 115.437 81.783 96.0983 92.8611C86.1053 98.5839 76.4973 100.491 69.602 101.016C67.7819 101.156 67.3968 98.7414 69.1469 98.1463Z" fill="white"/>
</g>
<g opacity="0.7">
<path d="M145.136 9.7669C145.136 9.7669 140.218 10.2394 139.151 11.657C137.453 13.9496 144.173 15.1047 144.173 15.1047C144.173 15.1047 140.813 13.2146 141.653 11.7795C142.336 10.6419 145.136 9.7669 145.136 9.7669Z" fill="white"/>
</g>
<path d="M108.086 129.595L110.729 135.808L108.086 129.595Z" fill="#F4DD7A"/>
<path d="M45.2234 100.474C45.2409 100.422 45.4159 100.352 45.7659 100.282C45.3984 100.439 45.2234 100.509 45.2234 100.474Z" fill="#F4DD7A"/>
<path d="M136.088 33.3408C136.106 33.3232 136.106 33.3232 136.106 33.3232C136.106 33.288 136.088 33.3056 136.088 33.3408Z" fill="#F9B00D"/>
<path d="M14.2642 124.188C11.0791 121.003 8.75145 117.835 7.50887 114.912C4.76124 108.384 6.38883 104.132 8.26143 101.734C11.4466 97.6039 17.1519 96.3439 21.3871 96.9389C21.7546 96.9914 60.1516 101.717 91.2857 79.928C100.771 73.2777 112.322 59.487 121.615 48.3739C127.478 41.356 132.308 35.5808 135.72 32.6581C135.003 28.6504 133.375 19.4274 133.025 17.0823C132.518 13.8096 132.885 7.94683 140.988 5.4792C141.513 5.3392 152.049 2.50405 163.074 6.42425L163.232 6.47677C165.857 7.56182 167.835 9.60943 168.815 12.1996C169.795 14.8247 169.62 17.6948 168.342 20.3025L162.112 32.1331C167.275 36.5958 179.508 49.4589 176.323 68.3249C174.31 80.313 165.472 110.677 127.355 133.393C106.301 145.941 84.6003 150.702 62.8817 147.569C43.5257 144.769 24.5198 134.443 14.2642 124.188ZM160.852 12.2871C151.751 9.1019 142.773 11.4645 142.686 11.482C138.958 12.6196 138.906 14.3872 139.168 16.1197C139.606 19.0074 142.161 33.2881 142.178 33.4456L142.546 35.4932L140.796 36.6133C138.188 38.2759 132.448 45.1362 126.392 52.3816C116.872 63.7572 105.041 77.9329 94.8559 85.0383C66.9244 104.569 31.7126 104.709 20.4946 103.117C18.1319 102.784 14.7718 103.519 13.2317 105.514C12.0066 107.089 12.0416 109.434 13.3017 112.445C17.1694 121.598 39.273 137.786 63.7568 141.339C84.0228 144.279 104.324 139.799 124.117 127.985C159.994 106.599 168.237 78.4054 170.11 67.2574C173.365 47.9714 156.967 35.9833 156.266 35.4932L154.044 33.9007L162.724 17.4148C163.197 16.4523 163.284 15.3497 162.917 14.3522C162.549 13.4596 161.814 12.7246 160.852 12.2871Z" fill="#650000"/>
<path d="M150.701 45.9939C143.806 73.9603 123.347 98.4791 98.006 111.78C96.5885 112.532 95.3284 110.502 96.6935 109.592C113.897 97.639 129.07 82.6058 139.606 64.3698C143.123 58.367 146.308 52.0317 148.636 45.5039C149.021 44.2088 150.999 44.6463 150.701 45.9939Z" fill="#650000"/>
<path d="M66.942 117.292C58.2266 119.532 49.0386 119.76 40.1657 118.447C37.208 117.975 34.2853 117.327 31.4327 116.33C30.7502 116.102 30.4176 115.35 30.6452 114.667C30.8377 114.125 31.3452 113.792 31.8877 113.81C34.8279 113.845 37.733 114.02 40.6207 114.177L49.2836 114.65C55.1114 114.947 60.8692 114.965 66.7145 115.21C67.887 115.227 68.0796 116.995 66.942 117.292Z" fill="#650000"/>
<path d="M140.638 15.0348C145.801 16.9424 158.192 17.1524 162.427 13.4772C162.514 13.2847 162.409 13.2847 162.339 13.4247C162.269 13.5297 162.234 13.4597 162.077 13.2672C161.902 13.0572 161.499 12.6547 161.307 12.4621C158.244 9.5395 162.497 5.00677 165.612 7.84192C168.027 10.4671 169.182 14.7023 166.084 17.3099C164.107 18.9375 161.657 19.3575 159.417 19.6025C155.409 19.935 151.419 19.515 147.551 18.6575C145.013 18.0799 142.476 17.3274 140.183 15.9798C139.938 15.8398 139.851 15.5073 139.991 15.2623C140.131 15.0173 140.393 14.9298 140.638 15.0348Z" fill="#650000"/>
</svg>
