<svg width="513" height="516" viewBox="0 0 513 516" fill="none" xmlns="http://www.w3.org/2000/svg">
<circle cx="254.044" cy="258.791" r="229.43" stroke="#D8DDE4" stroke-width="5"/>
<circle cx="254.044" cy="258.791" r="189.873" stroke="#D8DDE4" stroke-width="2"/>
<circle cx="254.044" cy="258.791" r="150.316" fill="#BCFA7B"/>
<circle cx="180.073" cy="83.5539" r="5.93354" fill="#BCFA7B"/>
<circle cx="71.6867" cy="313.775" r="5.93354" fill="#81B1FF"/>
<circle cx="403.174" cy="376.275" r="5.93354" fill="#FFD553"/>
<rect x="8" y="160.69" width="55" height="55" rx="27.5" fill="white"/>
<path d="M28.943 173.198C29.4663 173.315 29.9974 173.393 30.5051 173.549C32.1765 174.088 33.4496 175.15 34.3478 176.658C34.3947 176.736 34.4181 176.884 34.3713 176.962C33.3012 178.813 32.2234 180.649 31.1534 182.5C31.0518 182.68 30.9191 182.758 30.7238 182.797C29.1383 183.125 27.5606 183.469 25.975 183.797C25.6704 183.859 25.4439 184.023 25.2799 184.289C24.9675 184.788 24.6394 185.288 24.3036 185.812C23.6163 185.327 23.0617 184.757 22.6009 184.086C19.6954 179.852 22.2494 174.018 27.3262 173.26C27.4512 173.245 27.5684 173.213 27.6933 173.19C28.1229 173.198 28.5369 173.198 28.943 173.198Z" fill="#1E2632"/>
<path d="M31.4033 203.19C31.5986 202.307 31.7938 201.425 32.0047 200.542C32.0203 200.488 32.1687 200.425 32.2547 200.425C32.9186 200.417 33.5824 200.417 34.2385 200.417C35.8162 200.417 37.3939 200.425 38.9717 200.409C39.206 200.409 39.3153 200.464 39.3622 200.706C39.5262 201.534 39.7215 202.362 39.9011 203.182C37.0659 203.19 34.2385 203.19 31.4033 203.19Z" fill="#1E2632"/>
<path d="M22.9678 203.19C23.2568 202.542 23.5926 201.909 23.8191 201.245C24.0378 200.573 24.3971 200.37 25.1078 200.401C26.6856 200.472 28.2633 200.425 29.841 200.425C29.9503 200.425 30.0519 200.425 30.2081 200.425C29.9972 201.362 29.7941 202.276 29.591 203.19C27.3807 203.19 25.1781 203.19 22.9678 203.19Z" fill="#1E2632"/>
<path d="M41.7132 203.19C41.5102 202.284 41.3071 201.37 41.104 200.441C41.2212 200.433 41.3071 200.425 41.393 200.425C43.1113 200.425 44.8296 200.425 46.5479 200.417C46.7588 200.417 46.8525 200.488 46.9384 200.675C47.2977 201.519 47.6726 202.354 48.0475 203.19C45.9309 203.19 43.822 203.19 41.7132 203.19Z" fill="#1E2632"/>
<path d="M20.5078 191.943C20.6796 191.693 20.914 191.63 21.2108 191.63C22.8197 191.638 24.4287 191.638 26.0376 191.638C26.1235 191.638 26.2095 191.638 26.3266 191.638C26.3032 191.724 26.2876 191.787 26.2641 191.841C25.9127 192.607 25.5534 193.38 25.1863 194.145C25.1394 194.239 25.0144 194.348 24.9285 194.348C23.4602 194.356 21.984 194.348 20.5156 194.341C20.5078 193.544 20.5078 192.739 20.5078 191.943Z" fill="#1E2632"/>
<path d="M50.5002 194.348C49.0631 194.356 47.6338 194.356 46.1967 194.356C46.1264 194.356 46.0248 194.302 45.9936 194.239C45.6187 193.403 45.2516 192.568 44.8767 191.732C44.8689 191.716 44.8845 191.693 44.8845 191.646C44.9782 191.646 45.072 191.646 45.1657 191.646C46.7043 191.646 48.2508 191.654 49.7895 191.638C50.0863 191.638 50.3206 191.701 50.4924 191.951C50.5002 192.739 50.5002 193.544 50.5002 194.348Z" fill="#1E2632"/>
<path d="M20.5078 196.098C21.6169 196.106 22.726 196.106 23.8429 196.114C23.9678 196.114 24.0928 196.114 24.2646 196.114C24.1709 196.325 24.0928 196.512 24.0069 196.692C23.7335 197.278 23.4602 197.855 23.1946 198.441C23.1243 198.605 23.0306 198.668 22.8431 198.668C22.0621 198.66 21.281 198.676 20.5078 198.676C20.5078 197.816 20.5078 196.957 20.5078 196.098Z" fill="#1E2632"/>
<path d="M50.5 198.676C49.7424 198.668 48.977 198.66 48.2194 198.668C48.0241 198.668 47.9304 198.613 47.8523 198.426C47.5633 197.746 47.2509 197.074 46.9541 196.395C46.9228 196.317 46.8994 196.239 46.8447 196.098C48.0944 196.098 49.2972 196.098 50.5 196.098C50.5 196.957 50.5 197.816 50.5 198.676Z" fill="#1E2632"/>
<path d="M49.9142 203.19C49.7737 202.831 49.6331 202.471 49.4769 202.112C49.2425 201.558 49.0004 201.011 48.7427 200.433C49.3519 200.433 49.9221 200.433 50.4922 200.433C50.4922 201.354 50.4922 202.268 50.4922 203.182C50.3048 203.19 50.1095 203.19 49.9142 203.19Z" fill="#1E2632"/>
<path d="M20.5078 200.441C21.078 200.441 21.6481 200.441 22.2574 200.441C22.0855 200.816 21.9215 201.167 21.7653 201.519C21.5154 202.073 21.2732 202.635 21.0311 203.19C20.8593 203.19 20.6796 203.19 20.5 203.19C20.5078 202.268 20.5078 201.354 20.5078 200.441Z" fill="#1E2632"/>
<path d="M47.4154 189.865C43.3852 189.865 39.394 189.865 35.3794 189.865C35.3794 189.764 35.3716 189.678 35.3794 189.6C35.4107 189.155 35.4888 188.702 35.4654 188.256C35.4263 187.577 35.7309 187.108 36.1839 186.655C36.8166 186.023 37.3945 185.335 38.0116 184.679C38.3318 184.343 38.3943 183.976 38.2381 183.555C37.7382 182.203 37.2461 180.844 36.7541 179.493C36.715 179.392 36.6838 179.29 36.6369 179.149C36.7463 179.188 36.8244 179.212 36.9025 179.243C39.0894 180.204 41.2763 181.165 43.4633 182.117C43.9163 182.313 44.2443 182.617 44.4396 183.07C45.3925 185.257 46.361 187.444 47.3217 189.631C47.3607 189.686 47.3763 189.756 47.4154 189.865Z" fill="#1E2632"/>
<path d="M34.9102 179.548C35.1601 180.219 35.3866 180.844 35.6132 181.461C35.8631 182.148 36.1052 182.836 36.3708 183.523C36.4489 183.718 36.4098 183.836 36.277 183.984C35.5585 184.757 34.8555 185.538 34.137 186.311C33.9261 186.538 33.8246 186.788 33.8089 187.1C33.7621 187.959 33.6918 188.811 33.6293 189.67C33.6215 189.732 33.6059 189.803 33.5902 189.873C30.3489 189.873 27.1232 189.873 23.8662 189.873C23.9131 189.779 23.9521 189.701 23.9912 189.631C24.8269 188.311 25.6626 186.999 26.514 185.687C26.5921 185.569 26.7483 185.452 26.8889 185.421C28.4119 185.085 29.9349 184.749 31.4658 184.445C31.9579 184.343 32.2781 184.117 32.528 183.679C33.2466 182.398 34.0042 181.133 34.7462 179.86C34.7774 179.774 34.8243 179.696 34.9102 179.548Z" fill="#1E2632"/>
<path d="M32.4419 198.644C32.6372 197.824 32.8168 197.028 33.0121 196.239C33.0277 196.184 33.1448 196.122 33.2073 196.122C34.8397 196.114 36.4643 196.114 38.0967 196.122C38.167 196.122 38.2841 196.184 38.2919 196.239C38.4872 197.028 38.6668 197.824 38.8621 198.644C36.7142 198.644 34.6054 198.644 32.4419 198.644Z" fill="#1E2632"/>
<path d="M25.0459 198.644C25.1318 198.449 25.2021 198.285 25.2802 198.121C25.5614 197.52 25.8348 196.918 26.1237 196.325C26.1706 196.231 26.2956 196.129 26.3893 196.129C27.9514 196.114 29.5135 196.122 31.0756 196.122C31.1146 196.122 31.1459 196.137 31.2162 196.145C31.0209 196.989 30.8256 197.816 30.6304 198.644C28.7715 198.644 26.9282 198.644 25.0459 198.644Z" fill="#1E2632"/>
<path d="M46.0092 198.668C44.8454 198.668 43.7364 198.668 42.6273 198.668C42.0493 198.668 41.4791 198.676 40.9012 198.66C40.8152 198.66 40.6747 198.597 40.659 198.535C40.456 197.746 40.2763 196.949 40.0811 196.129C40.1982 196.122 40.2841 196.114 40.37 196.114C41.7915 196.114 43.2209 196.114 44.6424 196.106C44.8376 196.106 44.9314 196.161 45.0095 196.348C45.2984 197.028 45.6109 197.699 45.9077 198.379C45.9467 198.457 45.9701 198.535 46.0092 198.668Z" fill="#1E2632"/>
<path d="M27.0298 194.356C27.2719 193.841 27.4906 193.372 27.7015 192.911C27.8733 192.552 28.0295 192.185 28.2092 191.826C28.2482 191.748 28.3498 191.646 28.4279 191.646C29.6932 191.638 30.9663 191.638 32.2706 191.638C32.1066 192.349 31.9504 193.028 31.7942 193.7C31.638 194.356 31.638 194.356 30.9584 194.356C29.7791 194.356 28.5997 194.356 27.4125 194.356C27.311 194.356 27.2094 194.356 27.0298 194.356Z" fill="#1E2632"/>
<path d="M39.659 194.341C39.4481 193.435 39.2451 192.568 39.0342 191.662C39.1357 191.654 39.2138 191.638 39.2997 191.638C40.4244 191.638 41.5413 191.638 42.666 191.63C42.8457 191.63 42.9394 191.677 43.0175 191.849C43.369 192.669 43.7361 193.481 44.1188 194.333C42.6114 194.341 41.143 194.341 39.659 194.341Z" fill="#1E2632"/>
<path d="M37.8548 194.341C36.3708 194.341 34.9259 194.341 33.4497 194.341C33.6528 193.474 33.848 192.63 34.0511 191.794C34.0667 191.732 34.1839 191.646 34.2464 191.646C35.1836 191.638 36.1209 191.638 37.0581 191.646C37.1206 191.646 37.23 191.716 37.2456 191.771C37.4565 192.622 37.6517 193.474 37.8548 194.341Z" fill="#1E2632"/>
<rect x="4" y="156.69" width="63" height="63" rx="31.5" stroke="#FFD553" stroke-opacity="0.5" stroke-width="8"/>
<rect x="449.456" y="289.646" width="55" height="55" rx="27.5" fill="white"/>
<path d="M491.948 304.493C491.893 305.071 491.838 305.656 491.776 306.234C491.549 308.304 491.128 310.327 490.456 312.303C490.44 312.35 490.417 312.389 490.393 312.459C486.277 310.741 483.372 307.843 481.638 303.696C482.161 303.532 482.661 303.36 483.169 303.219C485.184 302.665 487.238 302.321 489.331 302.196C489.425 302.188 489.519 302.165 489.612 302.149C489.94 302.149 490.276 302.149 490.612 302.149C490.815 302.251 491.034 302.329 491.229 302.454C491.62 302.696 491.799 303.087 491.956 303.501C491.948 303.829 491.948 304.165 491.948 304.493Z" fill="#1E2632"/>
<path d="M474.78 332.142C474.413 331.829 474.023 331.54 473.695 331.189C473.359 330.829 473.437 330.283 473.82 329.931C474.218 329.556 474.624 329.189 475.038 328.83C475.202 328.689 475.257 328.541 475.257 328.322C475.257 327.9 475.272 327.487 475.304 327.065C475.312 326.979 475.397 326.838 475.468 326.823C477.334 326.338 479.061 325.534 480.709 324.55C480.748 324.526 480.794 324.503 480.873 324.464C480.88 324.581 480.896 324.675 480.896 324.768C480.904 325.948 480.912 327.127 480.919 328.314C480.927 329.572 480.326 330.392 479.131 330.79C477.905 331.204 476.678 331.618 475.452 332.04C475.382 332.063 475.319 332.103 475.249 332.142C475.093 332.142 474.937 332.142 474.78 332.142Z" fill="#1E2632"/>
<path d="M461.956 318.848C462.034 318.653 462.12 318.458 462.19 318.255C462.58 317.114 462.971 315.966 463.361 314.826C463.721 313.803 464.556 313.186 465.642 313.178C466.923 313.17 468.196 313.193 469.477 313.201C469.516 313.201 469.555 313.209 469.618 313.217C469.571 313.303 469.54 313.381 469.5 313.451C468.54 315.068 467.759 316.763 467.29 318.59C467.251 318.747 467.181 318.794 467.032 318.794C466.587 318.801 466.134 318.809 465.689 318.848C465.572 318.856 465.423 318.919 465.345 319.004C464.963 319.395 464.611 319.809 464.236 320.215C463.768 320.723 463.213 320.738 462.737 320.246C462.455 319.957 462.213 319.629 461.956 319.317C461.956 319.161 461.956 319.004 461.956 318.848Z" fill="#1E2632"/>
<path d="M481.068 303.93C482.833 308.234 485.871 311.264 490.19 313.068C489.925 313.67 489.683 314.248 489.417 314.826C488.277 317.27 486.566 319.262 484.536 320.996C482.489 322.738 480.302 324.253 477.826 325.331C476.655 325.846 475.436 326.229 474.171 326.44C473.898 326.487 473.687 326.495 473.554 326.19C473.507 326.073 473.382 325.979 473.288 325.885C471.594 324.191 469.891 322.488 468.196 320.793C468.102 320.699 468.009 320.574 467.891 320.527C467.579 320.395 467.61 320.168 467.649 319.91C468.04 317.567 469.008 315.443 470.242 313.436C471.625 311.186 473.281 309.155 475.225 307.367C476.881 305.844 478.818 304.766 480.919 303.969C480.951 303.954 480.982 303.954 481.068 303.93ZM481.005 316.122C482.677 316.075 484.004 314.709 483.958 313.084C483.911 311.413 482.536 310.085 480.912 310.139C479.24 310.194 477.92 311.561 477.975 313.193C478.029 314.849 479.388 316.169 481.005 316.122Z" fill="#1E2632"/>
<path d="M466.954 323.73C466.119 324.284 465.876 325.159 465.611 326.003C465.361 326.791 465.166 327.596 464.97 328.4C464.853 328.885 465.213 329.267 465.681 329.142C466.814 328.83 467.946 328.502 469.071 328.143C469.594 327.971 470.055 327.666 470.391 327.112C470.477 327.229 470.532 327.323 470.61 327.401C471.07 327.869 471.07 327.869 470.797 328.463C470.367 329.392 469.633 329.978 468.712 330.369C467.095 331.064 465.392 331.501 463.69 331.907C463.51 331.954 463.33 332.001 463.143 332.025C462.487 332.11 461.948 331.603 462.088 330.962C462.534 328.924 463.018 326.893 463.932 325.003C464.369 324.097 465.072 323.511 466.001 323.167C466.197 323.097 466.345 323.097 466.486 323.269C466.618 323.433 466.782 323.566 466.954 323.73Z" fill="#1E2632"/>
<path d="M467.064 320.824C467.251 320.926 467.485 320.996 467.634 321.144C469.415 322.91 471.188 324.683 472.961 326.463C473.32 326.83 473.312 327.362 472.968 327.69C472.633 328.018 472.125 328.01 471.758 327.651C469.985 325.885 468.22 324.12 466.454 322.355C466.181 322.082 466.095 321.754 466.251 321.387C466.376 321.066 466.689 320.879 467.064 320.824Z" fill="#1E2632"/>
<rect x="445.456" y="285.646" width="63" height="63" rx="31.5" stroke="#FFD553" stroke-opacity="0.5" stroke-width="8"/>
<rect x="389.329" y="68.1265" width="55" height="55" rx="27.5" fill="white"/>
<path d="M415.946 110.597C415.388 110.524 414.823 110.465 414.273 110.363C410.025 109.578 406.709 107.365 404.295 103.796C402.938 101.788 402.168 99.5528 401.911 97.149C401.617 94.4447 402.124 91.8724 403.261 89.4173C403.268 89.4026 403.29 89.3953 403.32 89.366C403.371 89.4173 403.43 89.4613 403.481 89.5126C404.259 90.2894 405.036 91.0736 405.829 91.8504C405.961 91.9823 405.983 92.0922 405.931 92.2535C405.484 93.6972 405.308 95.1703 405.462 96.6727C405.66 98.6807 406.328 100.52 407.501 102.169C408.697 103.855 410.223 105.137 412.109 105.987C414.163 106.911 416.298 107.226 418.535 106.889C420.634 106.566 422.497 105.738 424.118 104.382C426.077 102.741 427.369 100.667 427.955 98.175C428.447 96.0644 428.337 93.9757 427.633 91.9237C426.811 89.5419 425.344 87.6364 423.282 86.2073C421.807 85.1887 420.171 84.5657 418.389 84.3165C416.738 84.082 415.117 84.2213 413.532 84.7123C413.319 84.7783 413.187 84.7489 413.026 84.5877C412.285 83.8255 411.522 83.078 410.773 82.3305C410.707 82.2645 410.641 82.1912 410.524 82.0666C411.338 81.7735 412.094 81.4584 412.872 81.2312C421 78.8347 429.599 84.0381 431.47 92.4147C431.616 93.0889 431.675 93.7778 431.778 94.4667C431.792 94.562 431.814 94.6573 431.829 94.7526C431.829 95.3388 431.829 95.9251 431.829 96.5114C431.807 96.7166 431.778 96.9145 431.756 97.1197C431.492 99.5895 430.699 101.869 429.298 103.921C426.892 107.438 423.598 109.615 419.386 110.392C418.829 110.495 418.271 110.546 417.714 110.626C417.119 110.597 416.533 110.597 415.946 110.597Z" fill="#1E2632"/>
<path d="M409.416 92.9791C409.724 92.9791 410.018 92.9718 410.311 92.9864C410.406 92.9938 410.517 93.0451 410.583 93.111C411.184 93.6973 411.778 94.2909 412.358 94.8919C412.424 94.9652 412.475 95.0971 412.461 95.1924C412.197 97.4642 413.891 99.6408 416.173 99.9487C418.961 100.322 421.345 98.1751 421.206 95.3829C421.074 92.6933 418.623 90.9564 416.378 91.2642C416.29 91.2788 416.166 91.2275 416.1 91.1689C415.491 90.5753 414.896 89.9743 414.295 89.3734C414.236 89.3148 414.192 89.2268 414.185 89.1535C414.17 88.8457 414.177 88.5306 414.177 88.2301C417.288 87.0136 421.176 88.0469 423.355 91.1982C425.468 94.2616 425.094 98.4096 422.446 101.165C419.871 103.847 415.703 104.287 412.461 102.221C409.46 100.286 408.132 96.2917 409.416 92.9791Z" fill="#1E2632"/>
<path d="M405.403 84.1407C405.403 83.2759 405.381 82.4478 405.418 81.627C405.425 81.3851 405.528 81.1066 405.675 80.9088C405.924 80.579 406.408 80.5423 406.76 80.7769C406.87 80.8501 406.973 80.9454 407.069 81.048C408.734 82.7263 410.385 84.4045 412.057 86.0755C412.329 86.3466 412.453 86.6544 412.446 87.0429C412.431 87.9296 412.446 88.8164 412.439 89.7032C412.439 89.9084 412.505 90.0476 412.644 90.1868C414.192 91.7259 415.74 93.2722 417.281 94.8186C417.384 94.9212 417.486 95.0238 417.567 95.1483C417.802 95.5001 417.743 95.9472 417.442 96.2403C417.141 96.5261 416.709 96.5774 416.371 96.3429C416.254 96.2623 416.144 96.1597 416.041 96.0571C414.493 94.5108 412.945 92.9717 411.404 91.4254C411.265 91.2861 411.126 91.2202 410.92 91.2202C410.003 91.2275 409.086 91.2202 408.169 91.2275C407.846 91.2275 407.582 91.1249 407.355 90.8977C405.631 89.1755 403.906 87.4459 402.182 85.7237C401.889 85.4305 401.75 85.0934 401.918 84.6904C402.087 84.2799 402.432 84.1334 402.865 84.1407C403.679 84.148 404.523 84.1407 405.403 84.1407Z" fill="#1E2632"/>
<rect x="385.329" y="64.1265" width="63" height="63" rx="31.5" stroke="#81B1FF" stroke-opacity="0.5" stroke-width="8"/>
<rect x="54.6772" y="385.374" width="55" height="55" rx="27.5" fill="white"/>
<path d="M80.2781 417.8C78.2782 414.338 76.2961 410.903 74.4038 407.629C74.8433 407.109 75.2289 406.625 75.6414 406.168C77.2289 404.446 78.3948 402.473 79.0853 400.239C79.2198 399.818 79.4261 399.486 79.8656 399.352C80.3857 399.199 80.8611 399.405 81.166 399.926C82.1615 401.638 83.148 403.36 84.1345 405.073C86.1255 408.535 88.1255 412.006 90.1165 415.468C90.1613 415.548 90.2062 415.62 90.251 415.701C90.4573 416.105 90.4393 416.508 90.1613 416.867C89.8833 417.226 89.4976 417.36 89.0582 417.261C87.3632 416.876 85.6412 416.732 83.9193 416.965C82.8341 417.118 81.7758 417.414 80.7086 417.647C80.5651 417.683 80.4306 417.746 80.2781 417.8Z" fill="#1E2632"/>
<path d="M72.4931 408.562C74.4751 411.997 76.4213 415.396 78.3943 418.822C76.78 419.665 75.363 420.858 73.4348 420.947C70.7532 421.073 68.2869 419.405 67.4618 416.84C66.6367 414.275 67.6501 411.459 69.9281 410.033C70.7622 409.531 71.6142 409.073 72.4931 408.562Z" fill="#1E2632"/>
<path d="M75.7219 422.804C77.3542 421.88 78.9595 420.965 80.5738 420.06C81.3451 419.629 81.3451 419.638 81.7756 420.382C82.1882 421.1 82.6097 421.817 83.0132 422.535C83.9011 424.104 83.372 426.05 81.8294 426.938C80.2779 427.826 78.3407 427.315 77.4259 425.754C76.834 424.75 76.26 423.737 75.7219 422.804Z" fill="#1E2632"/>
<path d="M89.3267 409.773C88.3222 408.042 87.3267 406.311 86.3223 404.58C87.5509 404.284 88.9679 404.939 89.6406 406.096C90.3311 407.253 90.2056 408.831 89.3267 409.773Z" fill="#1E2632"/>
<path d="M93.8198 409.809C93.1741 409.845 92.6629 409.414 92.627 408.804C92.5822 408.203 93.0485 407.71 93.6942 407.665C94.4566 407.62 95.2099 407.567 95.9722 407.531C96.6449 407.504 97.1202 407.916 97.174 408.526C97.2188 409.118 96.7704 409.611 96.1068 409.665C95.3355 409.728 94.5821 409.764 93.8198 409.809Z" fill="#1E2632"/>
<path d="M90.6633 398.374C91.04 398.383 91.3629 398.553 91.5602 398.921C91.7575 399.28 91.7575 399.648 91.5243 400.006C91.1297 400.607 90.7441 401.208 90.3405 401.8C89.9548 402.365 89.3181 402.517 88.7979 402.168C88.2867 401.827 88.1791 401.172 88.5558 400.598C88.9504 400.015 89.345 399.432 89.7396 398.84C89.9549 398.535 90.2508 398.383 90.6633 398.374Z" fill="#1E2632"/>
<path d="M91.6762 406.087C91.1023 406.087 90.6897 405.782 90.5552 405.325C90.4207 404.867 90.5821 404.374 90.9946 404.123C91.6314 403.737 92.2861 403.36 92.9408 403.002C93.4251 402.742 94.0529 402.93 94.3309 403.378C94.6268 403.854 94.5103 404.499 94.026 404.804C93.3533 405.226 92.6628 405.621 91.9722 406.006C91.8735 406.069 91.7211 406.069 91.6762 406.087Z" fill="#1E2632"/>
<rect x="50.6772" y="381.374" width="63" height="63" rx="31.5" stroke="#81B1FF" stroke-opacity="0.5" stroke-width="8"/>
<rect x="288.063" y="452.62" width="55" height="55" rx="27.5" fill="white"/>
<path d="M324.248 472.396C323.534 473.111 322.845 473.801 322.229 474.418C321.808 473.647 321.427 472.77 320.891 472.007C319.238 469.668 316.951 468.353 314.114 468.02C309.614 467.492 305.35 470.204 303.915 474.499C302.115 479.898 305.334 485.654 310.895 486.962C315.111 487.952 319.505 485.914 321.572 481.993C321.678 481.79 321.791 481.684 322.026 481.676C322.529 481.652 322.967 481.424 323.324 481.084C323.753 480.669 324.151 480.223 324.564 479.793C324.751 479.598 324.953 479.411 325.148 479.216C324.791 483.381 321.232 488.845 314.779 489.819C308.26 490.802 302.415 486.588 300.932 480.58C299.294 473.931 303.299 467.647 309.339 465.69C315.597 463.668 321.994 467.289 324.248 472.396Z" fill="#1E2632"/>
<path d="M320.178 489.852C322.286 488.561 324.013 486.905 325.277 484.753C325.342 484.81 325.407 484.842 325.448 484.891C326.785 486.231 328.131 487.562 329.461 488.918C330.977 490.453 330.92 492.815 329.347 494.228C327.977 495.454 325.772 495.421 324.394 494.098C322.991 492.75 321.637 491.354 320.259 489.974C320.243 489.949 320.227 489.909 320.178 489.852Z" fill="#1E2632"/>
<path d="M306.68 482.301C306.355 481.749 306.055 481.254 305.78 480.751C305.747 480.694 305.78 480.548 305.828 480.499C306.923 479.443 308.025 478.396 309.144 477.365C309.533 477.008 310.012 477.056 310.417 477.454C311.025 478.047 311.625 478.656 312.225 479.265C312.306 479.346 312.355 479.443 312.428 479.549C312.565 479.419 312.646 479.346 312.728 479.265C314.187 477.803 315.654 476.334 317.114 474.872C317.665 474.328 318.103 474.32 318.654 474.872C319.611 475.822 320.559 476.78 321.54 477.763C321.637 477.673 321.727 477.592 321.808 477.511C323.648 475.668 325.488 473.825 327.337 471.982C327.71 471.609 328.099 471.527 328.488 471.747C329.047 472.063 329.136 472.729 328.666 473.216C328.034 473.866 327.393 474.499 326.753 475.132C325.277 476.585 323.802 478.031 322.326 479.484C321.775 480.028 321.329 480.028 320.786 479.484C319.902 478.599 319.019 477.722 318.143 476.837C318.062 476.756 318.022 476.65 317.957 476.561C317.916 476.561 317.876 476.569 317.827 476.569C317.762 476.659 317.713 476.764 317.632 476.845C316.189 478.299 314.738 479.744 313.295 481.197C312.703 481.79 312.274 481.79 311.69 481.205C311.049 480.556 310.401 479.914 309.744 479.249C308.723 480.247 307.733 481.238 306.68 482.301Z" fill="#1E2632"/>
<rect x="284.063" y="448.62" width="63" height="63" rx="31.5" stroke="#BCFA7B" stroke-opacity="0.5" stroke-width="8"/>
<rect x="161.481" y="8" width="55" height="55" rx="27.5" fill="white"/>
<path d="M180.054 42.9936C180.708 42.3484 181.344 41.728 181.972 41.1076C179.401 37.3853 179.401 33.663 181.964 29.9407C181.336 29.3204 180.699 28.6917 180.03 28.03C178.971 28.6173 177.806 28.7413 176.599 28.2947C175.714 27.9638 175.036 27.3848 174.557 26.5659C173.598 24.9281 173.904 22.8601 175.301 21.578C176.69 20.2959 178.781 20.1635 180.335 21.2389C181.716 22.1984 182.708 24.349 181.518 26.5741C182.154 27.2193 182.783 27.8563 183.411 28.4932C187.131 25.9289 190.843 25.9207 194.613 28.518C195.192 27.9224 195.803 27.3186 196.39 26.6982C196.44 26.6403 196.423 26.4749 196.382 26.3839C195.39 24.4152 196.109 22.0743 198.036 20.999C199.433 20.2214 201.194 20.3538 202.458 21.3878C203.781 22.4714 204.244 23.8858 203.839 25.5484C203.459 27.1201 202.136 28.2616 200.557 28.5015C199.606 28.6421 198.73 28.4518 197.936 28.0134C197.283 28.6586 196.638 29.2873 196.002 29.9159C198.573 33.6382 198.581 37.3605 196.018 41.0911C196.647 41.7114 197.283 42.3401 197.945 42.9853C198.573 42.6296 199.284 42.4311 200.061 42.4559C202.111 42.5138 203.823 44.2343 203.864 46.294C203.913 48.4033 202.326 50.19 200.251 50.3389C198.722 50.4464 197.49 49.8756 196.63 48.6101C195.779 47.3528 195.729 46.0045 196.374 44.6314C196.456 44.4659 196.456 44.3749 196.316 44.2426C195.729 43.6718 195.159 43.0928 194.588 42.5138C190.86 45.0946 187.139 45.0946 183.427 42.5634C182.807 43.1838 182.163 43.8207 181.509 44.4742C182.7 46.691 181.683 48.8913 180.203 49.8508C178.608 50.8848 176.475 50.6697 175.135 49.3049C173.78 47.9235 173.598 45.7646 174.697 44.1847C175.731 42.7289 177.905 41.8272 180.054 42.9936ZM194.357 39.8917C196.514 37.4019 196.638 33.0344 193.596 30.3212C190.612 27.666 185.982 28.0879 183.518 31.2477C181.104 34.3496 182.03 38.2125 183.642 39.8668C184.188 38.7501 185.023 37.8982 186.089 37.2778C184.378 35.2512 184.965 32.9103 186.205 31.6943C187.586 30.3461 189.727 30.1723 191.298 31.2973C192.075 31.8515 192.596 32.596 192.827 33.5224C193.183 34.9286 192.819 36.1694 191.876 37.2695C192.984 37.9064 193.794 38.7584 194.357 39.8917Z" fill="#1E2632"/>
<rect x="157.481" y="4" width="63" height="63" rx="31.5" stroke="#BCFA7B" stroke-opacity="0.5" stroke-width="8"/>
<path d="M320.434 339.214C320.434 339.214 346.314 344.03 358.52 319.911C370.446 296.325 346.086 268.556 345.44 247.25C344.553 218.417 363.83 192.409 396.96 200.432C430.572 208.569 427.036 249.532 410.686 260.14C401.054 266.388 392.664 263.968 389.635 253.22C386.593 242.472 400.23 235.387 395.275 226.972C390.319 218.556 372.132 219.139 368.558 236.908C364.983 254.665 380.623 284.88 381.979 304.487C383.234 322.814 372.55 341.102 356.644 350.088C337.671 360.811 321.777 358.795 321.777 358.795L320.434 339.214Z" fill="#B74729"/>
<g opacity="0.35">
<path d="M422.651 236.034C421.738 223.03 414.298 210.102 396.947 205.907C365.617 198.316 346.682 221.154 345.465 248.049C345.452 247.783 345.44 247.529 345.427 247.263C344.54 218.429 363.805 192.422 396.947 200.445C416.732 205.236 423.652 221.382 422.651 236.034Z" fill="white"/>
</g>
<g opacity="0.3">
<path d="M382.005 305.057C383.006 323.194 372.372 341.191 356.631 350.088C337.658 360.798 321.764 358.795 321.764 358.795L321.08 348.859C327.404 348.758 340.319 347.452 354.933 339.81C368.798 332.56 379.077 319.404 382.005 305.057Z" fill="#650000"/>
</g>
<g opacity="0.3">
<path d="M368.557 236.908C368.481 237.301 368.405 237.694 368.355 238.087C367.822 233.879 367.81 229.963 368.595 226.515C372.588 208.721 392.372 208.024 397.708 216.414C400.23 220.368 398.24 224.057 395.781 227.986C395.642 227.656 395.477 227.314 395.275 226.984C390.319 218.569 372.132 219.152 368.557 236.908Z" fill="#650000"/>
</g>
<g opacity="0.3">
<path d="M421.764 242.155C420.015 249.937 416.035 256.68 410.674 260.153C401.041 266.401 392.664 263.98 389.622 253.22C388.494 249.215 389.673 245.729 391.346 242.485C391.358 242.561 391.384 242.637 391.409 242.713C394.641 253.448 403.754 255.818 414.26 249.519C417.163 247.77 419.71 245.222 421.764 242.155Z" fill="#650000"/>
</g>
<path d="M325.148 360.975C322.994 360.975 321.701 360.823 321.524 360.798L319.876 360.595L318.241 336.768L320.801 337.249C321.802 337.427 345.364 341.457 356.72 319.024C363.716 305.184 357.379 289.557 351.257 274.436C347.366 264.829 343.691 255.767 343.425 247.339C342.905 230.216 349.255 214.576 360.433 205.502C370.332 197.466 383.133 195.046 397.442 198.506C412.017 202.029 421.776 212.244 424.209 226.503C426.605 240.52 421.256 255.717 411.789 261.864C406.238 265.463 400.952 266.477 396.491 264.804C392.321 263.232 389.292 259.43 387.695 253.79C385.972 247.669 388.811 242.764 391.32 238.416C393.88 233.993 395.363 231.116 393.538 228.011C391.675 224.842 387.214 223.169 382.689 223.93C376.555 224.957 372.017 229.963 370.534 237.314C368.557 247.149 372.943 261.547 377.176 275.463C380.382 285.995 383.411 295.944 383.994 304.36C385.287 323.13 374.692 342.218 357.645 351.85C343.475 359.835 331.055 360.975 325.148 360.975ZM323.666 356.907C328.089 357.059 340.978 356.628 355.655 348.339C371.384 339.455 381.155 321.888 379.964 304.626C379.419 296.667 376.453 286.933 373.323 276.629C368.938 262.231 364.413 247.352 366.593 236.515C368.418 227.466 374.185 221.268 382.03 219.95C388.266 218.898 394.286 221.319 397.023 225.958C400.129 231.243 397.315 236.122 394.818 240.419C392.499 244.424 390.319 248.201 391.574 252.675C392.803 257.022 394.996 259.912 397.911 261.002C401.117 262.206 405.16 261.331 409.596 258.454C417.657 253.22 422.334 239.468 420.23 227.149C418.962 219.747 414.197 206.68 396.491 202.397C383.462 199.241 371.865 201.383 362.981 208.607C352.778 216.883 346.973 231.319 347.468 247.187C347.708 254.893 351.244 263.638 354.996 272.903C361.168 288.112 368.152 305.349 360.332 320.824C353.678 333.979 343.082 338.834 335.364 340.57C330.028 341.774 325.364 341.711 322.626 341.495L323.666 356.907Z" fill="#650000"/>
<path d="M232.12 242.219V322.826L193.198 317.49C192.742 316.641 192.374 315.716 192.07 314.728C187.9 301.128 197.266 275.526 204.643 258.67C208.876 249.012 212.45 242.231 212.45 242.231H232.12V242.219Z" fill="#B17E4F"/>
<path d="M232.12 242.219V322.826L198.585 318.226L193.198 317.49C192.742 316.641 192.374 315.716 192.07 314.728C187.9 301.128 197.266 275.526 204.643 258.67C208.876 249.012 212.45 242.231 212.45 242.231H232.12V242.219Z" fill="#B74729"/>
<g opacity="0.3">
<path d="M232.12 256.807V322.826L198.584 318.225C199.548 304.347 206.392 286.211 212.07 273.245C216.303 263.587 219.877 256.807 219.877 256.807H232.12Z" fill="#650000"/>
</g>
<path d="M234.136 325.133L191.905 319.341L191.424 318.428C180.815 298.391 209.446 243.6 210.676 241.281L211.246 240.204H234.148V325.133H234.136ZM194.542 315.64L230.105 320.52V244.247H213.679C209.776 251.889 186.924 298.137 194.542 315.64Z" fill="#650000"/>
<path d="M336.847 352.775C334.68 359.024 324.578 381.938 292.564 379.695L291.309 373.548C266.328 374.03 241.259 367.667 241.259 367.667C213.692 362.864 189.738 367.059 189.738 367.059L184.301 325.83C185.835 322.053 188.281 317.845 192.096 314.702C194.073 313.067 196.43 311.724 199.218 310.874C203.414 309.594 207.051 309.163 210.258 309.303L213.515 261.597L214.846 242.193H302.196C307.849 248.036 312.829 254.12 317.164 260.343C339.927 293.067 344.933 329.493 336.847 352.775Z" fill="#B74729"/>
<g opacity="0.3">
<path d="M291.296 373.561C266.315 374.042 241.246 367.68 241.246 367.68C213.679 362.877 189.725 367.072 189.725 367.072L184.288 325.843C184.719 324.791 185.213 323.701 185.796 322.598L190.182 355.842C190.182 355.842 214.136 351.647 241.702 356.451C241.702 356.451 264.959 362.344 289.002 362.357L291.296 373.561Z" fill="#650000"/>
</g>
<path d="M288.457 375.614C265.061 375.614 242.665 370.113 240.828 369.657C213.984 364.993 190.309 369.023 190.08 369.061L188.015 369.429L182.222 325.589L182.425 325.095C185.835 316.73 191.437 311.153 198.623 308.973C202.818 307.693 206.645 307.161 210.334 307.326C211.449 307.376 212.311 308.314 212.26 309.43C212.209 310.545 211.284 311.394 210.156 311.356C206.924 311.217 203.54 311.698 199.789 312.839C192.476 315.057 188.458 321.191 186.354 326.134L191.449 364.778C197.9 363.878 218.331 361.647 241.588 365.703L241.74 365.741C242.07 365.83 274.477 373.916 301.714 370.912V334.208C301.714 333.092 302.614 332.192 303.729 332.192C304.845 332.192 305.745 333.092 305.745 334.208V374.473L303.983 374.701C298.901 375.335 293.653 375.614 288.457 375.614Z" fill="#650000"/>
<path d="M322.842 341.09C319.205 331.952 308.431 326.324 299.484 327.199C291.613 327.972 285.086 335.64 285.098 343.358L292.563 379.695C324.578 381.938 334.68 359.024 336.847 352.775C346.467 325.07 337.557 278.733 302.17 242.219H214.833" fill="#B17E4F"/>
<path d="M322.842 341.09C319.205 331.952 308.431 326.324 299.484 327.199C291.613 327.972 285.086 335.64 285.098 343.358L292.563 379.695C324.578 381.938 334.68 359.024 336.847 352.775C346.467 325.07 337.557 278.733 302.17 242.219H214.833L322.842 341.09Z" fill="#B74729"/>
<path d="M187.773 367.173C187.773 367.173 202.691 367.984 200.346 351.064C200.169 349.835 200.321 348.567 200.764 347.414C202.412 343.079 206.037 332.23 202.653 328.568C198.483 324.056 195.061 329.163 194.263 330.507C194.212 330.583 194.098 330.557 194.085 330.456C194.047 328.846 193.578 322.104 188.432 321.014C183.223 319.911 182.628 326.312 182.564 327.718C182.564 327.807 182.45 327.832 182.4 327.769C181.576 326.692 177.697 322.066 173.376 325.095C169.713 327.655 171.5 332.598 172.108 333.992C172.146 334.081 172.045 334.157 171.969 334.106C170.853 333.206 166.988 330.469 164.047 332.902C160.562 335.766 164.985 349.961 169.586 355.944C174.174 361.926 178.648 366.59 187.773 367.173Z" fill="#F9D6B6"/>
<path d="M186.028 357.656C189.747 356.415 191.394 351.313 189.708 346.26C188.023 341.207 183.642 338.117 179.923 339.357C176.205 340.598 174.557 345.7 176.243 350.753C177.929 355.806 182.31 358.897 186.028 357.656Z" fill="#F28475"/>
<path d="M171.563 334.639C170.98 334.094 169.979 333.675 169.054 333.485C168.116 333.282 167.203 333.295 166.532 333.536C165.885 333.777 165.366 334.17 165.087 334.765C164.77 335.412 164.631 336.4 164.643 337.427C164.681 339.505 165.201 341.749 165.885 343.916C166.595 346.083 167.495 348.225 168.56 350.253C169.092 351.267 169.662 352.256 170.283 353.181C170.587 353.65 170.917 354.093 171.246 354.524L172.336 355.906C173.807 357.731 175.328 359.429 177.013 360.811C178.686 362.217 180.562 363.244 182.577 363.928C183.604 364.245 184.643 364.524 185.72 364.664C186.253 364.765 186.798 364.803 187.355 364.854L187.761 364.892C187.837 364.892 187.913 364.904 187.913 364.904H188.078C188.318 364.904 188.572 364.904 188.825 364.879C190.879 364.74 192.945 364.144 194.516 363.079C196.113 362.015 197.228 360.456 197.799 358.542C198.382 356.641 198.47 354.461 198.242 352.256L198.154 351.432C198.103 351.077 198.078 350.659 198.065 350.278C198.052 349.493 198.141 348.707 198.318 347.946C198.407 347.566 198.521 347.199 198.648 346.831L198.977 345.969C199.18 345.424 199.383 344.867 199.573 344.322C200.334 342.116 201.005 339.873 201.462 337.642C201.69 336.527 201.854 335.412 201.931 334.334C202.007 333.257 201.969 332.205 201.766 331.343C201.664 330.912 201.525 330.545 201.348 330.266C201.309 330.203 201.271 330.127 201.221 330.076C201.17 330.025 201.145 329.962 201.056 329.873C200.904 329.708 200.752 329.569 200.6 329.429C200.296 329.176 199.991 328.986 199.725 328.897C199.446 328.796 199.193 328.758 198.863 328.783C198.217 328.834 197.355 329.265 196.582 329.911C195.809 330.545 195.048 331.394 194.516 332.218L194.427 332.345C194.149 332.763 193.591 332.89 193.173 332.611C192.869 332.421 192.729 332.078 192.754 331.749C192.919 330.253 193.515 329.037 194.339 327.871C195.175 326.743 196.341 325.653 198.065 325.158C198.927 324.93 199.903 324.917 200.79 325.146C201.677 325.374 202.45 325.805 203.084 326.299C203.388 326.552 203.692 326.806 203.958 327.072C204.085 327.186 204.237 327.376 204.389 327.554C204.541 327.731 204.668 327.909 204.782 328.099C205.264 328.846 205.543 329.62 205.733 330.355C206.1 331.838 206.126 333.232 206.062 334.563C205.986 335.893 205.821 337.173 205.581 338.428C205.112 340.938 204.427 343.346 203.654 345.703C203.464 346.299 203.261 346.882 203.046 347.465L202.742 348.301C202.666 348.504 202.615 348.707 202.564 348.922C202.475 349.341 202.437 349.771 202.45 350.19C202.463 350.405 202.476 350.595 202.514 350.836L202.628 351.812C202.919 354.398 202.868 357.148 202.057 359.873C201.652 361.229 201.031 362.572 200.169 363.776C199.307 364.98 198.23 366.02 197.026 366.844C195.822 367.68 194.503 368.263 193.173 368.694C191.829 369.112 190.486 369.366 189.092 369.467C188.749 369.492 188.395 369.505 188.027 369.505H187.735C187.583 369.505 187.507 369.492 187.431 369.48L186.937 369.429C186.278 369.366 185.632 369.302 184.973 369.188C183.667 368.998 182.362 368.643 181.094 368.238C178.547 367.363 176.139 365.982 174.123 364.271C172.083 362.572 170.397 360.621 168.851 358.681C168.458 358.187 168.091 357.718 167.71 357.211C167.317 356.679 166.937 356.134 166.595 355.589C165.898 354.499 165.277 353.371 164.719 352.243C163.591 349.974 162.653 347.63 161.918 345.183C161.196 342.737 160.638 340.228 160.638 337.465C160.664 336.083 160.803 334.613 161.563 333.067C162.337 331.483 163.908 330.266 165.606 329.936C167.305 329.594 168.889 329.987 170.169 330.697C170.816 331.064 171.411 331.495 171.905 332.066C172.4 332.623 172.856 333.295 172.983 334.17C173.046 334.588 172.755 334.981 172.336 335.044C172.096 335.082 171.867 335.006 171.703 334.854L171.563 334.639Z" fill="#650000"/>
<path d="M182.172 330.608C181.728 328.859 180.537 327.338 179.092 326.552C178.369 326.159 177.609 325.957 176.899 325.957C176.189 325.969 175.568 326.185 175.023 326.552C174.884 326.641 174.757 326.755 174.618 326.857C174.491 326.92 174.352 326.971 174.238 327.047C173.997 327.186 173.769 327.376 173.566 327.63C173.16 328.137 172.869 328.922 172.755 329.784C172.628 330.659 172.653 331.609 172.793 332.547C172.869 333.016 172.97 333.485 173.097 333.941C173.236 334.398 173.414 334.816 173.541 335.234L173.579 335.348C173.68 335.678 173.49 336.033 173.16 336.121C172.983 336.172 172.793 336.134 172.641 336.045C172.083 335.678 171.779 335.171 171.475 334.689C171.183 334.195 170.93 333.688 170.702 333.168C170.258 332.116 169.928 331.001 169.789 329.797C169.662 328.606 169.7 327.275 170.233 325.919C170.499 325.247 170.892 324.588 171.411 324.017C171.665 323.739 171.956 323.46 172.248 323.244C172.539 323.054 172.856 322.915 173.186 322.775C174.491 322.23 175.999 322.066 177.355 322.332C178.712 322.585 179.916 323.219 180.892 324.017C182.831 325.627 183.959 327.946 184.136 330.304C184.174 330.849 183.769 331.318 183.224 331.356C182.742 331.394 182.311 331.077 182.197 330.621L182.172 330.608Z" fill="#650000"/>
<path d="M192.856 330.836C192.881 330.063 192.792 329.176 192.564 328.327C192.336 327.49 191.994 326.666 191.563 325.982C191.132 325.285 190.612 324.715 190.131 324.36C189.624 324.005 189.244 323.891 188.787 323.853C188.737 323.84 188.673 323.84 188.61 323.84C188.547 323.84 188.496 323.84 188.394 323.84C188.23 323.84 188.078 323.865 187.913 323.878C187.609 323.916 187.33 323.98 187.076 324.056C186.557 324.208 186.05 324.487 185.543 324.993C185.048 325.5 184.618 326.223 184.351 327.034C184.073 327.832 183.971 328.732 183.908 329.543L183.895 329.683C183.857 330.127 183.464 330.456 183.021 330.418C182.729 330.393 182.488 330.215 182.362 329.974C181.817 328.872 181.766 327.769 181.766 326.641C181.791 325.513 181.981 324.334 182.488 323.156C182.983 321.99 183.946 320.849 185.201 320.165C185.822 319.822 186.493 319.594 187.152 319.468C187.482 319.404 187.811 319.366 188.141 319.341C188.293 319.328 188.483 319.328 188.661 319.328C188.838 319.328 189.028 319.341 189.218 319.366C190.726 319.506 192.184 320.329 193.059 321.369C193.971 322.395 194.453 323.561 194.77 324.677C195.074 325.805 195.2 326.907 195.226 328.01C195.226 329.113 195.175 330.215 194.732 331.356C194.529 331.863 193.958 332.104 193.451 331.914C193.059 331.761 192.818 331.369 192.83 330.976L192.856 330.836Z" fill="#650000"/>
<path d="M296.911 381.862C295.453 381.862 293.957 381.812 292.411 381.698L290.89 381.596L283.083 343.561V343.358C283.07 334.372 290.497 326.046 299.293 325.184C300.396 325.082 301.384 325.881 301.499 326.996C301.6 328.099 300.801 329.087 299.686 329.201C293.045 329.848 287.215 336.35 287.113 343.156L294.224 377.769C323.26 379.112 332.715 358.529 334.946 352.104C339.825 338.061 339.648 320.038 334.451 301.331C328.685 280.571 317.227 260.837 301.308 244.221H214.82C213.705 244.221 212.805 243.321 212.805 242.206C212.805 241.091 213.705 240.191 214.82 240.191H303.019L303.615 240.799C320.307 258.023 332.309 278.568 338.33 300.241C343.741 319.721 343.894 338.606 338.748 353.422C336.352 360.316 326.467 381.862 296.911 381.862Z" fill="#650000"/>
<path d="M251.106 350.507C268.613 350.507 282.804 332.836 282.804 311.039C282.804 289.242 268.613 271.572 251.106 271.572C233.6 271.572 219.408 289.242 219.408 311.039C219.408 332.836 233.6 350.507 251.106 350.507Z" fill="#FFCA9F"/>
<path d="M262.83 358.795C281.283 360.709 306.707 329.087 306.707 315.298L262.83 358.795Z" fill="#B17E4F"/>
<path d="M215.568 265.767C216.468 269.481 216.544 273.169 216.379 276.844C216.278 278.682 216.049 280.507 215.872 282.332L215.378 287.82C215.048 291.483 214.668 295.146 214.199 298.809L213.819 301.559L213.375 304.322C213.236 305.234 213.02 306.172 212.843 307.098C212.665 308.023 212.387 308.986 212.146 309.924C211.88 311.001 210.79 311.66 209.712 311.394C208.635 311.128 207.976 310.051 208.23 308.973L208.28 308.758C208.483 307.921 208.724 307.123 208.889 306.248C209.053 305.374 209.256 304.525 209.383 303.637L209.801 300.976L210.169 298.289C210.625 294.69 210.992 291.077 211.322 287.453C211.474 285.64 211.652 283.828 211.753 282.003C211.867 280.178 211.905 278.353 212.057 276.54C212.387 272.903 212.919 269.291 214.199 265.704C214.326 265.336 214.731 265.146 215.099 265.273C215.352 265.349 215.517 265.539 215.568 265.767Z" fill="#650000"/>
<path d="M287.544 273.929C287.544 273.929 291.473 318.923 247.494 331.533C247.494 331.533 245.872 357.034 262.83 358.795C281.283 360.709 306.708 329.087 306.708 315.298" fill="#B74729"/>
<g opacity="0.35">
<path d="M249.395 335.336C291.106 323.371 289.724 282.294 289.471 278.087L287.544 273.929C287.544 273.929 291.473 318.923 247.494 331.533C247.494 331.533 246.721 343.701 251.841 351.812C248.837 344.182 249.395 335.336 249.395 335.336Z" fill="white"/>
</g>
<g opacity="0.3">
<path d="M305.972 319.937C301.676 335.095 279.433 360.519 262.83 358.795C245.872 357.034 247.494 331.533 247.494 331.533C248.85 331.14 250.143 330.722 251.41 330.279C252.272 337.959 255.441 349.176 266.467 350.316C280.244 351.761 297.899 334.512 305.972 319.937Z" fill="#650000"/>
</g>
<path d="M288.216 273.866C288.799 275.476 289.078 277.098 289.23 278.733C289.395 280.368 289.395 282.003 289.293 283.638C289.103 286.908 288.533 290.152 287.671 293.308C285.897 299.62 283.349 305.754 279.686 311.255C276.036 316.755 271.296 321.534 265.859 325.26C260.409 328.986 254.325 331.66 248.064 333.46L249.522 331.647C249.471 332.636 249.471 333.777 249.509 334.841C249.547 335.919 249.623 337.009 249.725 338.086C249.953 340.241 250.32 342.37 250.878 344.423C251.981 348.504 253.958 352.37 257.126 354.613C258.685 355.741 260.523 356.438 262.488 356.717C264.401 357.008 266.379 356.78 268.381 356.235C272.373 355.133 276.188 352.902 279.724 350.367C283.273 347.807 286.568 344.854 289.661 341.685C292.741 338.517 295.618 335.133 298.229 331.559C299.534 329.772 300.776 327.947 301.93 326.071C303.096 324.208 304.122 322.269 304.997 320.279C305.859 318.289 306.695 316.312 307.417 314.347C308.14 312.357 308.812 310.469 309.306 308.302L309.319 308.264C309.407 307.883 309.788 307.643 310.168 307.731C310.371 307.782 310.535 307.909 310.624 308.074C311.258 309.202 311.499 310.494 311.575 311.736C311.638 312.991 311.524 314.233 311.283 315.412C310.801 317.807 309.902 320.025 308.824 322.104C306.632 326.261 304.224 330.215 301.473 333.929C298.748 337.655 295.757 341.178 292.538 344.486C289.319 347.794 285.859 350.887 282.082 353.624C278.292 356.337 274.186 358.783 269.446 360.114C268.254 360.443 267.038 360.684 265.77 360.798C264.516 360.912 263.172 360.887 261.917 360.697C259.408 360.354 256.886 359.404 254.782 357.883C252.653 356.375 251.005 354.36 249.75 352.23C248.495 350.076 247.634 347.794 247 345.488C246.366 343.181 245.961 340.836 245.72 338.504C245.593 337.338 245.517 336.159 245.479 334.981C245.441 333.789 245.428 332.661 245.492 331.394L245.568 329.987L246.949 329.594C252.868 327.883 258.546 325.386 263.578 321.939C268.609 318.492 272.956 314.106 276.328 309.024C278.013 306.489 279.471 303.79 280.688 300.989C281.879 298.175 282.83 295.247 283.527 292.256C284.224 289.265 284.781 286.249 285.263 283.207C285.491 281.686 285.719 280.152 285.985 278.619C286.239 277.085 286.53 275.526 286.885 273.98L286.898 273.942C286.987 273.575 287.354 273.334 287.735 273.422C287.963 273.486 288.14 273.651 288.216 273.866Z" fill="#650000"/>
<path d="M241.588 391.406L283.032 375.297V369.264L201.271 361.913L177.583 383.991L241.588 391.406Z" fill="#B5B5B5"/>
<path d="M234.262 379.986L256.024 372.635C256.607 372.433 256.505 371.584 255.884 371.533L225.517 369.125L216.658 380.379L234.262 379.986Z" fill="white"/>
<path d="M242.957 390.874L282.386 375.538C282.779 375.386 283.032 375.018 283.032 374.6V370.62C283.032 369.949 282.386 369.467 281.74 369.657L242.31 381.495C241.879 381.621 241.588 382.014 241.588 382.458V389.936C241.588 390.645 242.298 391.127 242.957 390.874Z" fill="#B5B5B5"/>
<g opacity="0.3">
<path d="M283.032 372.75V374.613C283.032 375.031 282.779 375.398 282.386 375.551L242.957 390.886C242.298 391.14 241.588 390.658 241.588 389.948V386.336C241.588 387.046 242.298 386.387 242.957 386.133L283.032 372.75Z" fill="#650000"/>
</g>
<path d="M241.854 393.472L241.36 393.421L173.021 385.513L200.562 359.847L285.047 367.439V376.679L241.854 393.472ZM182.146 382.496L241.322 389.353L281.017 373.916V371.115L201.994 364.005L182.146 382.496Z" fill="#650000"/>
<path d="M238.559 381.381L127.964 368.58C127.191 368.491 126.545 367.972 126.291 367.224L124.061 360.659L119.054 345.957L97.1408 281.623C96.6592 280.216 97.8126 278.796 99.2828 278.974L200.625 290.697L201.702 290.824L209.877 291.775C210.65 291.863 211.297 292.383 211.55 293.131L240.701 378.732C241.17 380.126 240.029 381.546 238.559 381.381Z" fill="#B5B5B5"/>
<g opacity="0.35">
<path d="M119.054 345.957L97.1408 281.623C96.6592 280.216 97.8126 278.796 99.2828 278.974L200.625 290.697C193.971 295.577 126.748 287.25 111.881 286.692C99.5996 286.236 121.944 337.718 119.054 345.957Z" fill="white"/>
</g>
<g opacity="0.3">
<path d="M238.559 381.381L127.964 368.58C127.191 368.491 126.545 367.971 126.291 367.224L124.061 360.658C141.982 363.979 189.751 372.686 204.047 353.472C216.696 336.464 204.63 301.686 201.69 290.811L209.865 291.762C210.638 291.851 211.284 292.37 211.538 293.118L240.688 378.719C241.17 380.126 240.029 381.545 238.559 381.381Z" fill="#650000"/>
</g>
<path d="M238.8 383.409C238.647 383.409 238.483 383.396 238.331 383.383L127.749 370.582C126.215 370.405 124.897 369.34 124.39 367.87L95.2396 282.269C94.796 280.951 95.0495 279.519 95.924 278.441C96.7985 277.364 98.142 276.819 99.5235 276.971L210.105 289.772C211.639 289.949 212.957 291.014 213.464 292.484L242.614 378.085C243.058 379.404 242.805 380.836 241.93 381.913C241.144 382.864 240.004 383.409 238.8 383.409ZM99.0419 280.976L128.192 366.577L238.787 379.378L209.624 293.777L99.0419 280.976Z" fill="#650000"/>
<path d="M242.602 392.534C242.082 392.534 241.575 392.382 241.132 392.078C240.422 391.596 240.004 390.797 240.004 389.936V382.458C240.004 381.305 240.751 380.303 241.854 379.974L281.283 368.136C282.069 367.895 282.918 368.047 283.577 368.542C284.236 369.036 284.617 369.796 284.617 370.62V374.6C284.617 375.665 283.958 376.628 282.969 377.021L243.54 392.356C243.236 392.47 242.919 392.534 242.602 392.534ZM243.172 382.889V389.099L281.448 374.22V371.406L243.172 382.889Z" fill="#650000"/>
<path d="M128.674 368.618L240.701 381.596C241.208 381.659 241.588 382.09 241.588 382.597V390.278C241.588 390.886 241.068 391.343 240.46 391.279L128.433 378.301C127.926 378.237 127.546 377.807 127.546 377.3V369.619C127.546 369.023 128.066 368.554 128.674 368.618Z" fill="#B5B5B5"/>
<g opacity="0.3">
<path d="M241.588 386.019V390.278C241.588 390.874 241.055 391.342 240.46 391.279L128.433 378.301C127.926 378.237 127.546 377.807 127.546 377.3V373.041C127.546 373.548 127.926 373.979 128.433 374.042L240.46 387.021C241.055 387.097 241.588 386.628 241.588 386.019Z" fill="#650000"/>
</g>
<path d="M240.574 393.307C240.46 393.307 240.346 393.294 240.232 393.282L128.205 380.303C126.684 380.126 125.531 378.833 125.531 377.3V369.619C125.531 368.757 125.898 367.933 126.545 367.363C127.191 366.793 128.04 366.527 128.902 366.615L240.929 379.594C242.45 379.771 243.603 381.064 243.603 382.597V390.278C243.603 391.14 243.235 391.964 242.589 392.534C242.031 393.028 241.322 393.307 240.574 393.307ZM129.561 376.4L239.573 389.15V383.51L129.561 370.76V376.4Z" fill="#650000"/>
<path d="M322.842 341.09C319.204 331.952 308.431 326.324 299.483 327.199C291.613 327.972 285.085 335.64 285.098 343.358L292.563 379.695C324.578 381.938 334.679 359.024 336.847 352.775L322.842 341.09Z" fill="#B74729"/>
<g opacity="0.35">
<path d="M322.652 340.646C317.138 334.271 308.216 330.697 300.51 331.445C293.488 332.129 287.43 337.756 285.314 344.385L285.098 343.358C285.085 335.64 291.625 327.959 299.483 327.199C308.292 326.35 318.849 331.774 322.652 340.646Z" fill="white"/>
</g>
<g opacity="0.35">
<path d="M323.399 341.559L322.842 341.09C322.778 340.938 322.715 340.798 322.652 340.646C322.918 340.95 323.159 341.254 323.399 341.559Z" fill="white"/>
</g>
<g opacity="0.3">
<path d="M336.847 352.775C334.679 359.023 324.578 381.938 292.563 379.695L291.308 373.548L289.002 362.344C289.914 362.344 290.839 362.344 291.765 362.319L293.019 368.466C316.048 370.075 327.747 358.669 333.298 349.822C335.465 346.375 336.694 343.308 337.303 341.546C338.824 337.173 339.876 332.344 340.433 327.173C340.649 336.666 339.407 345.386 336.847 352.775Z" fill="#650000"/>
</g>
<path d="M322.512 341.229C320.028 337.604 316.948 334.879 313.463 332.801C309.99 330.735 306.049 329.366 302.107 329.239C301.613 329.227 301.118 329.201 300.637 329.252C300.155 329.29 299.661 329.29 299.217 329.391L298.533 329.506C298.305 329.556 298.089 329.632 297.861 329.683C297.633 329.746 297.417 329.797 297.189 329.873L296.53 330.127C294.794 330.824 293.184 331.901 291.828 333.257C289.129 335.969 287.405 339.708 287.405 343.358L287.354 342.902L291.169 361.052L294.921 379.214L292.715 377.274C297.202 377.553 301.689 377.426 306.036 376.603C310.383 375.779 314.578 374.309 318.368 372.103C322.157 369.911 325.541 367.008 328.33 363.586C329.736 361.888 330.966 360.038 332.094 358.124C333.209 356.21 334.172 354.182 334.933 352.129L334.946 352.104C335.338 351.064 336.492 350.532 337.531 350.912C338.558 351.292 339.09 352.42 338.735 353.447C337.164 358.124 334.819 362.471 331.764 366.337C328.723 370.202 324.984 373.561 320.738 376.121C316.505 378.719 311.765 380.38 306.948 381.33C302.12 382.268 297.202 382.458 292.386 382.129L290.548 382.002L290.18 380.189L286.467 362.015L282.829 343.827L282.779 343.587V343.371C282.804 340.811 283.425 338.314 284.464 336.071C285.516 333.827 286.974 331.8 288.736 330.089C290.51 328.378 292.627 327.009 294.959 326.109L295.846 325.792C296.137 325.691 296.454 325.627 296.758 325.551C297.063 325.475 297.367 325.386 297.671 325.323L298.609 325.184C299.242 325.07 299.838 325.07 300.447 325.032C301.055 324.981 301.651 325.019 302.259 325.044C304.667 325.171 307.012 325.653 309.242 326.426C311.473 327.186 313.615 328.251 315.516 329.645C317.417 331.026 319.116 332.699 320.446 334.626C321.777 336.54 322.766 338.707 323.159 340.95C323.197 341.153 323.057 341.331 322.867 341.369C322.728 341.407 322.588 341.343 322.512 341.229Z" fill="#650000"/>
<path d="M297.848 381.926C297.848 381.926 282.931 382.737 285.276 365.817C285.453 364.587 285.301 363.32 284.857 362.167C283.21 357.832 279.585 346.983 282.969 343.32C287.139 338.808 290.561 343.916 291.359 345.259C291.41 345.335 291.524 345.31 291.537 345.209C291.575 343.599 292.044 336.856 297.189 335.766C302.398 334.664 302.994 341.064 303.057 342.471C303.057 342.56 303.171 342.585 303.222 342.522C304.046 341.444 307.924 336.818 312.246 339.847C315.909 342.408 314.122 347.351 313.514 348.745C313.476 348.833 313.577 348.909 313.653 348.859C314.768 347.959 318.634 345.221 321.574 347.655C325.06 350.519 320.636 364.714 316.036 370.696C311.435 376.679 306.986 381.343 297.848 381.926Z" fill="#FFCA9F"/>
<g opacity="0.3">
<path d="M284.87 362.167C285.314 363.333 285.466 364.587 285.288 365.817C282.931 382.737 297.861 381.926 297.861 381.926C306.987 381.343 311.461 376.666 316.061 370.684C317.645 368.618 319.204 365.576 320.434 362.357C315.681 368.098 310.51 372.344 301.169 372.94C301.169 372.94 288.66 374.663 284.414 355.069C284.11 353.65 283.21 357.832 284.87 362.167Z" fill="#650000"/>
</g>
<path d="M312.601 348.897C312.728 348.022 313.171 347.338 313.678 346.793C314.172 346.223 314.781 345.792 315.415 345.424C316.707 344.714 318.292 344.322 319.99 344.664C321.688 344.993 323.26 346.21 324.033 347.794C324.793 349.328 324.933 350.811 324.958 352.192C324.958 354.955 324.388 357.465 323.678 359.911C322.943 362.344 322.005 364.689 320.877 366.97C320.307 368.111 319.686 369.226 319.001 370.316C318.659 370.861 318.279 371.406 317.886 371.938C317.506 372.445 317.138 372.927 316.745 373.409C315.199 375.348 313.513 377.3 311.473 378.998C309.458 380.709 307.05 382.09 304.502 382.965C303.222 383.383 301.929 383.725 300.624 383.916C299.977 384.042 299.318 384.106 298.659 384.156L298.165 384.207C298.089 384.22 298.013 384.22 297.861 384.232H297.569C297.202 384.232 296.847 384.22 296.505 384.194C295.123 384.093 293.767 383.852 292.424 383.421C291.093 382.99 289.775 382.407 288.571 381.571C287.367 380.747 286.277 379.708 285.428 378.504C284.566 377.3 283.945 375.956 283.539 374.6C282.728 371.875 282.677 369.125 282.969 366.539L283.083 365.563C283.121 365.323 283.134 365.132 283.146 364.917C283.159 364.499 283.121 364.068 283.032 363.65C282.981 363.447 282.931 363.231 282.855 363.029L282.551 362.192C282.335 361.609 282.132 361.013 281.942 360.43C281.169 358.073 280.485 355.665 280.016 353.155C279.775 351.901 279.61 350.621 279.534 349.29C279.471 347.959 279.496 346.578 279.864 345.082C280.054 344.334 280.345 343.561 280.814 342.826C280.928 342.636 281.055 342.458 281.207 342.281C281.346 342.104 281.511 341.913 281.638 341.799C281.904 341.533 282.196 341.267 282.512 341.026C283.146 340.532 283.919 340.101 284.807 339.873C285.694 339.645 286.67 339.657 287.531 339.886C289.255 340.38 290.421 341.47 291.258 342.598C292.081 343.751 292.677 344.981 292.842 346.476C292.893 346.97 292.538 347.427 292.043 347.477C291.689 347.515 291.359 347.351 291.182 347.072L291.093 346.945C290.561 346.121 289.8 345.272 289.027 344.638C288.241 343.992 287.392 343.561 286.746 343.51C286.416 343.485 286.163 343.523 285.884 343.624C285.605 343.713 285.313 343.903 285.009 344.157C284.857 344.296 284.705 344.436 284.553 344.6C284.464 344.689 284.426 344.74 284.388 344.803C284.338 344.854 284.3 344.93 284.262 344.993C284.097 345.272 283.945 345.64 283.843 346.071C283.64 346.932 283.615 347.997 283.678 349.062C283.755 350.139 283.919 351.254 284.147 352.37C284.604 354.6 285.275 356.844 286.036 359.049C286.226 359.607 286.429 360.152 286.632 360.697L286.961 361.558C287.088 361.926 287.202 362.293 287.291 362.674C287.468 363.434 287.557 364.22 287.544 365.006C287.544 365.386 287.506 365.804 287.455 366.159L287.367 366.983C287.139 369.188 287.227 371.368 287.81 373.269C288.381 375.183 289.509 376.742 291.093 377.807C292.664 378.884 294.73 379.467 296.784 379.606C297.037 379.619 297.291 379.632 297.531 379.632H297.696C297.696 379.632 297.772 379.619 297.848 379.619L298.254 379.581C298.799 379.53 299.344 379.492 299.889 379.391C300.979 379.251 302.018 378.973 303.032 378.656C305.06 377.971 306.923 376.945 308.596 375.538C310.282 374.156 311.802 372.458 313.273 370.633L314.363 369.252C314.692 368.821 315.009 368.377 315.326 367.908C315.947 366.983 316.517 365.994 317.05 364.98C318.114 362.953 319.014 360.811 319.724 358.643C320.421 356.476 320.94 354.233 320.966 352.154C320.978 351.128 320.839 350.139 320.522 349.493C320.243 348.897 319.736 348.491 319.077 348.263C318.418 348.022 317.493 348.022 316.555 348.212C315.63 348.403 314.641 348.833 314.046 349.366L313.856 349.543C313.539 349.835 313.057 349.809 312.766 349.505C312.639 349.353 312.576 349.125 312.601 348.897Z" fill="#650000"/>
<path d="M301.524 345.082C301.689 342.725 302.817 340.418 304.769 338.796C305.744 337.997 306.936 337.363 308.305 337.11C309.661 336.844 311.156 337.009 312.474 337.554C312.804 337.693 313.121 337.832 313.412 338.022C313.704 338.251 313.995 338.517 314.249 338.796C314.756 339.366 315.161 340.025 315.427 340.697C315.96 342.04 316.01 343.371 315.871 344.575C315.732 345.779 315.402 346.894 314.959 347.946C314.73 348.466 314.477 348.973 314.185 349.467C313.881 349.949 313.577 350.456 313.019 350.823C312.728 351.013 312.348 350.937 312.158 350.646C312.056 350.481 312.031 350.304 312.082 350.126L312.12 350C312.246 349.581 312.424 349.163 312.563 348.707C312.703 348.251 312.804 347.782 312.867 347.313C313.007 346.375 313.032 345.424 312.905 344.55C312.791 343.675 312.5 342.902 312.094 342.395C311.891 342.142 311.663 341.951 311.422 341.812C311.296 341.736 311.169 341.698 311.042 341.622C310.903 341.533 310.776 341.406 310.637 341.318C310.079 340.95 309.458 340.735 308.761 340.722C308.064 340.709 307.291 340.912 306.568 341.318C305.123 342.104 303.932 343.624 303.488 345.373L303.476 345.399C303.336 345.931 302.804 346.248 302.284 346.109C301.79 345.995 301.486 345.551 301.524 345.082Z" fill="#650000"/>
<path d="M290.878 346.096C290.421 344.955 290.371 343.853 290.383 342.75C290.409 341.647 290.523 340.545 290.84 339.417C291.157 338.301 291.638 337.148 292.551 336.109C293.425 335.069 294.895 334.246 296.391 334.106C296.581 334.081 296.759 334.081 296.949 334.068C297.139 334.068 297.316 334.068 297.468 334.081C297.798 334.106 298.127 334.144 298.457 334.208C299.116 334.334 299.788 334.562 300.409 334.905C301.663 335.589 302.627 336.73 303.121 337.896C303.641 339.074 303.818 340.253 303.843 341.381C303.856 342.509 303.805 343.612 303.248 344.714C303.045 345.107 302.563 345.272 302.17 345.082C301.904 344.955 301.752 344.702 301.727 344.423L301.714 344.283C301.651 343.485 301.537 342.585 301.271 341.774C300.992 340.963 300.573 340.24 300.079 339.733C299.572 339.226 299.065 338.948 298.546 338.796C298.279 338.72 298.001 338.656 297.709 338.618C297.557 338.605 297.405 338.58 297.228 338.58C297.139 338.567 297.075 338.58 297.012 338.58C296.949 338.58 296.885 338.58 296.835 338.593C296.378 338.631 295.998 338.745 295.491 339.1C295.01 339.455 294.49 340.025 294.059 340.722C293.628 341.419 293.286 342.23 293.058 343.067C292.842 343.903 292.741 344.803 292.766 345.576V345.69C292.779 346.235 292.361 346.692 291.816 346.704C291.397 346.73 291.03 346.476 290.878 346.096Z" fill="#650000"/>
<path d="M307.221 363.963C307.941 358.919 305.064 354.335 300.795 353.726C296.527 353.117 292.483 356.712 291.762 361.757C291.042 366.802 293.919 371.386 298.188 371.995C302.457 372.604 306.501 369.008 307.221 363.963Z" fill="#F28475"/>
<path d="M271.118 352.763C270.016 353.802 268.558 354.309 267.227 354.448C265.529 354.626 264.084 355.792 263.501 357.401C261.955 361.647 259.154 366.679 255.377 366.007C250.599 365.158 252.335 351.812 252.348 351.673C252.576 348.986 241.714 360.126 238.216 355.589C235.631 352.256 243.071 342.471 243.071 342.357C243.109 340.57 233.35 346.248 232.196 341.343C231.296 337.49 237.595 328.77 243.552 328.111C247.608 327.668 261.98 329.708 271.156 343.625C273.653 347.389 272.348 351.584 271.118 352.763Z" fill="#FFCA9F"/>
<g opacity="0.35">
<path d="M246.1 331.901C249.877 331.483 262.678 333.244 271.828 344.816C271.651 344.41 271.435 344.005 271.169 343.612C261.993 329.683 247.621 327.642 243.565 328.099C237.595 328.758 231.296 337.465 232.209 341.331C232.526 342.687 233.502 343.232 234.756 343.358C235.517 339.075 240.929 332.459 246.1 331.901Z" fill="white"/>
</g>
<g opacity="0.3">
<path d="M271.169 343.612C270.789 343.041 270.409 342.496 270.016 341.977C270.181 344.309 269.369 346.311 268.584 347.059C267.481 348.098 266.024 348.605 264.693 348.745C262.994 348.922 261.55 350.088 260.967 351.698C259.42 355.944 256.619 360.975 252.842 360.304C252.602 360.266 252.386 360.177 252.183 360.075C252.488 362.991 253.337 365.639 255.377 366.007C259.154 366.679 261.968 361.647 263.501 357.401C264.084 355.792 265.529 354.638 267.228 354.448C268.558 354.309 270.016 353.814 271.119 352.762C272.348 351.584 273.653 347.389 271.169 343.612Z" fill="#650000"/>
</g>
<g opacity="0.3">
<path d="M253.616 345.323C253.806 343.13 242.792 350.785 238.229 350.963C237.583 352.8 237.393 354.511 238.217 355.576C240.536 358.592 249.902 354.055 253.324 351.888C253.21 348.555 253.616 345.399 253.616 345.323Z" fill="#650000"/>
</g>
<path d="M272.462 354.182C271.727 354.879 270.878 355.412 269.99 355.779C269.547 355.957 269.103 356.109 268.647 356.21C268.419 356.261 268.191 356.311 267.963 356.349L267.367 356.438C266.581 356.552 265.846 357.123 265.504 357.87C265.478 357.921 265.466 357.959 265.44 358.01L265.415 358.086L265.364 358.225L265.162 358.783C265.022 359.15 264.87 359.518 264.718 359.886C264.414 360.621 264.072 361.343 263.691 362.053C262.918 363.485 262.031 364.904 260.662 366.172C259.978 366.806 259.141 367.389 258.102 367.756C257.582 367.934 257.025 368.06 256.454 368.098C256.163 368.124 255.884 368.111 255.605 368.086C255.314 368.048 255.073 368.035 254.731 367.946C254.084 367.794 253.463 367.465 252.969 367.059C252.475 366.654 252.12 366.197 251.828 365.754C251.258 364.854 250.979 363.967 250.776 363.13C250.384 361.444 250.333 359.848 250.333 358.289C250.333 356.73 250.46 355.196 250.599 353.675L250.713 352.535L250.776 351.964L250.814 351.673L250.827 351.533C250.827 351.571 250.814 351.609 250.827 351.635C250.827 351.673 250.827 351.723 250.84 351.761L250.852 351.825C250.865 351.863 250.878 351.901 250.891 351.939C250.929 352.066 251.081 352.319 251.271 352.471C251.486 352.649 251.689 352.712 251.841 352.737C251.892 352.75 251.955 352.75 252.019 352.75C252.057 352.75 252.082 352.75 252.107 352.75C252.285 352.725 252.145 352.737 252.057 352.788C251.841 352.889 251.537 353.054 251.245 353.232C250.054 353.954 248.825 354.854 247.557 355.703C246.277 356.552 244.934 357.389 243.324 358.022C242.513 358.327 241.626 358.605 240.536 358.631C239.991 358.631 239.395 358.567 238.799 358.365C238.204 358.162 237.608 357.807 237.152 357.376C236.911 357.148 236.733 356.945 236.518 356.666C236.315 356.387 236.15 356.083 236.024 355.779C235.77 355.158 235.682 354.562 235.669 354.03C235.631 352.94 235.846 352.053 236.1 351.216C236.619 349.569 237.393 348.175 238.191 346.831C238.99 345.5 239.877 344.246 240.751 343.004L241.41 342.078L241.727 341.635C241.752 341.609 241.778 341.559 241.765 341.571C241.689 341.761 241.879 341.242 241.588 342.002C241.512 342.611 241.562 342.23 241.55 342.383C241.55 342.446 241.562 342.484 241.575 342.585C241.613 342.75 241.714 342.966 241.854 343.118C241.993 343.282 242.145 343.358 242.247 343.409C242.462 343.498 242.513 343.485 242.513 343.485C242.526 343.485 242.488 343.485 242.45 343.498C242.361 343.511 242.221 343.536 242.069 343.561C241.765 343.625 241.436 343.713 241.093 343.815C239.699 344.22 238.254 344.778 236.581 345.069C235.732 345.209 234.82 345.31 233.73 345.12C233.185 345.019 232.589 344.803 232.019 344.423C231.448 344.043 230.954 343.473 230.663 342.89C230.358 342.294 230.219 341.736 230.13 341.128C230.08 340.557 230.092 340.025 230.168 339.544C230.295 338.568 230.574 337.718 230.903 336.907C231.562 335.31 232.424 333.916 233.413 332.611C234.401 331.305 235.529 330.127 236.81 329.062C238.102 328.023 239.547 327.085 241.284 326.489C241.714 326.35 242.171 326.223 242.627 326.134C243.096 326.058 243.578 325.995 244.021 325.982C244.896 325.944 245.719 325.982 246.518 326.058C248.128 326.198 249.686 326.502 251.207 326.882C257.304 328.441 262.956 331.622 267.443 335.995C268.571 337.085 269.636 338.238 270.599 339.467C271.093 340.063 271.549 340.71 272.006 341.331L272.665 342.294C272.766 342.446 272.893 342.636 273.007 342.839C273.121 343.029 273.235 343.232 273.349 343.435C273.767 344.246 274.084 345.107 274.287 346.007C274.477 346.907 274.553 347.82 274.515 348.732C274.477 349.645 274.325 350.545 274.033 351.432C273.881 351.875 273.704 352.319 273.476 352.775C273.248 353.232 272.969 353.688 272.462 354.182ZM269.775 351.343C269.8 351.305 269.927 351.14 270.028 350.938C270.143 350.735 270.231 350.481 270.32 350.228C270.485 349.708 270.586 349.138 270.599 348.568C270.611 347.997 270.561 347.427 270.447 346.869C270.32 346.324 270.117 345.792 269.851 345.285C269.788 345.158 269.699 345.044 269.636 344.917C269.572 344.803 269.496 344.677 269.382 344.524L268.786 343.663C268.368 343.105 267.963 342.522 267.506 341.99C266.632 340.9 265.681 339.873 264.667 338.91C260.65 335.032 255.593 332.256 250.206 330.887C248.863 330.558 247.494 330.304 246.15 330.19C245.479 330.139 244.807 330.101 244.211 330.139C243.907 330.152 243.654 330.19 243.4 330.228C243.134 330.279 242.868 330.355 242.602 330.444C240.409 331.191 238.267 333.042 236.657 335.133C235.846 336.185 235.137 337.326 234.655 338.479C234.414 339.049 234.237 339.62 234.173 340.114C234.135 340.367 234.135 340.57 234.148 340.748C234.161 340.874 234.186 341.052 234.224 341.115C234.262 341.191 234.262 341.204 234.287 341.255C234.325 341.305 234.427 341.369 234.604 341.419C234.959 341.546 235.555 341.597 236.176 341.571C237.443 341.495 238.85 341.217 240.32 340.862C240.701 340.786 241.068 340.684 241.499 340.608C241.714 340.57 241.943 340.532 242.221 340.507C242.361 340.494 242.513 340.494 242.716 340.507C242.906 340.519 243.147 340.532 243.527 340.697C243.704 340.786 243.932 340.925 244.135 341.153C244.338 341.369 244.477 341.673 244.528 341.926C244.566 342.066 244.566 342.154 244.579 342.268C244.566 342.446 244.629 342.091 244.541 342.725C244.249 343.511 244.414 343.016 244.338 343.219L244.224 343.396L243.907 343.865C243.704 344.17 243.501 344.461 243.311 344.778C242.538 345.995 241.854 347.262 241.258 348.542C240.662 349.81 240.156 351.115 239.864 352.319C239.725 352.915 239.649 353.498 239.674 353.891C239.687 354.093 239.725 354.233 239.763 354.309C239.775 354.347 239.788 354.372 239.801 354.385C239.813 354.41 239.877 354.486 239.902 354.512C239.978 354.588 240.041 354.626 240.13 354.664C240.232 354.714 240.371 354.753 240.574 354.765C240.967 354.791 241.537 354.714 242.133 354.55C243.324 354.208 244.604 353.599 245.859 352.927C247.126 352.256 248.356 351.483 249.699 350.671C250.041 350.469 250.396 350.266 250.852 350.076C251.106 349.974 251.309 349.86 251.854 349.797C251.93 349.797 251.993 349.784 252.082 349.784C252.183 349.784 252.285 349.797 252.399 349.81C252.64 349.86 252.931 349.949 253.223 350.19C253.489 350.405 253.691 350.735 253.755 350.95C253.78 351.014 253.793 351.077 253.818 351.14L253.844 351.28C253.856 351.369 253.869 351.47 253.869 351.546C253.869 351.673 253.869 351.799 253.856 351.926L253.844 352.066L253.818 352.332L253.768 352.864C253.742 353.219 253.717 353.574 253.704 353.941C253.628 355.374 253.679 356.818 253.78 358.213C253.894 359.607 254.11 360.988 254.49 362.167C254.667 362.75 254.921 363.282 255.162 363.624C255.288 363.789 255.403 363.916 255.491 363.967C255.58 364.017 255.631 364.055 255.707 364.055C255.719 364.055 255.859 364.068 255.935 364.081C256.024 364.081 256.112 364.081 256.188 364.068C256.353 364.055 256.531 364.017 256.708 363.941C257.075 363.802 257.468 363.523 257.887 363.155C258.71 362.408 259.446 361.305 260.092 360.139C260.409 359.556 260.713 358.935 260.992 358.301C261.131 357.984 261.258 357.668 261.385 357.338L261.575 356.856L261.702 356.54C261.752 356.413 261.803 356.286 261.866 356.172C262.779 354.233 264.693 352.788 266.86 352.522L267.367 352.458C267.506 352.433 267.633 352.408 267.772 352.382C268.039 352.319 268.305 352.243 268.546 352.142C269.002 351.926 269.433 351.66 269.775 351.343Z" fill="#650000"/>
<path d="M344.185 167.593C344.185 167.593 346.91 151.599 364.109 151.586C380.623 151.573 388.063 167.593 386.174 179.659C384.197 192.333 377.569 199.076 367.658 202.194C357.303 205.438 346.517 202.992 346.517 202.992" fill="#FFCA9F"/>
<g opacity="0.4">
<path d="M364.109 151.586C346.923 151.599 344.185 167.593 344.185 167.593L344.21 167.999C346.264 163.259 351.27 156.022 362.841 156.009C379.356 155.997 386.795 172.017 384.92 184.082C384.793 184.906 384.641 185.705 384.476 186.478C385.224 184.425 385.794 182.156 386.187 179.646C388.05 167.593 380.611 151.573 364.109 151.586Z" fill="white"/>
</g>
<path d="M344.185 174.666C344.185 174.666 345.757 165.984 355.668 165.971C365.186 165.959 369.47 174.666 368.393 181.206C367.252 188.088 363.424 191.75 357.721 193.436C351.751 195.198 345.528 193.867 345.528 193.867" fill="#F28475"/>
<path d="M350.864 196.377C347.632 196.377 345.262 195.882 345.11 195.844C344.02 195.616 343.323 194.539 343.564 193.449C343.792 192.359 344.87 191.662 345.96 191.903C346.01 191.915 351.777 193.094 357.151 191.51C362.537 189.925 365.478 186.541 366.416 180.889C366.948 177.669 365.947 174.095 363.805 171.573C362.423 169.938 359.888 167.986 355.693 167.986H355.681C347.772 167.999 346.314 174.311 346.175 175.033C345.959 176.123 344.908 176.846 343.83 176.63C342.74 176.427 342.018 175.388 342.221 174.298C342.867 170.724 346.517 163.956 355.681 163.956H355.693C361.422 163.956 364.945 166.681 366.884 168.962C369.774 172.359 371.118 177.188 370.395 181.535C369.217 188.696 365.135 193.347 358.304 195.363C355.693 196.136 353.07 196.377 350.864 196.377Z" fill="#650000"/>
<path d="M355.769 205.895C350.332 205.895 346.339 205.008 346.073 204.944C344.983 204.703 344.312 203.613 344.552 202.536C344.793 201.446 345.883 200.774 346.96 201.015C347.062 201.041 357.366 203.297 367.049 200.267C376.998 197.15 382.448 190.496 384.184 179.355C385.224 172.726 383.12 165.211 378.836 160.217C375.135 155.895 370.04 153.614 364.121 153.614C364.109 153.614 364.109 153.614 364.096 153.614C348.786 153.627 346.263 167.365 346.162 167.948C345.972 169.051 344.933 169.786 343.843 169.596C342.74 169.406 342.005 168.367 342.195 167.277C342.22 167.099 345.427 149.609 364.096 149.596C364.109 149.596 364.109 149.596 364.121 149.596C371.257 149.596 377.404 152.372 381.89 157.606C386.985 163.55 389.381 172.118 388.151 179.989C386.174 192.65 379.672 200.546 368.24 204.133C363.893 205.476 359.483 205.895 355.769 205.895Z" fill="#650000"/>
<path d="M175.125 167.593C175.125 167.593 172.4 151.599 155.201 151.586C138.687 151.573 131.247 167.593 133.135 179.659C135.113 192.333 141.741 199.076 151.652 202.194C162.007 205.438 172.793 202.992 172.793 202.992" fill="#FFCA9F"/>
<g opacity="0.4">
<path d="M136.291 184.095C134.416 172.029 141.855 156.009 158.357 156.022C165.404 156.035 170.005 158.721 173.008 161.89C170.55 157.302 165.442 151.599 155.189 151.586C138.674 151.573 131.234 167.593 133.123 179.659C134.15 186.275 136.469 191.269 139.84 194.982C138.18 191.966 136.963 188.366 136.291 184.095Z" fill="white"/>
</g>
<g opacity="0.3">
<path d="M133.123 179.646C135.1 192.321 141.728 199.076 151.64 202.181C161.994 205.426 172.78 202.967 172.78 202.967L173.274 195.388C169.168 195.958 160.854 196.604 152.78 194.07C142.717 190.914 135.734 184.323 133.072 172.308C132.755 174.818 132.755 177.314 133.123 179.646Z" fill="#650000"/>
</g>
<g opacity="0.3">
<path d="M386.174 179.646C384.197 192.321 377.569 199.076 367.657 202.181C357.303 205.426 346.517 202.967 346.517 202.967L346.023 195.388C350.129 195.958 358.443 196.604 366.517 194.07C376.58 190.914 383.563 184.323 386.225 172.308C386.555 174.818 386.542 177.314 386.174 179.646Z" fill="#650000"/>
</g>
<path d="M175.125 174.666C175.125 174.666 173.553 165.984 163.642 165.971C154.124 165.959 149.84 174.666 150.917 181.206C152.058 188.088 155.885 191.75 161.589 193.436C167.558 195.198 173.781 193.867 173.781 193.867" fill="#F28475"/>
<path d="M150.917 181.218C152.058 188.1 155.885 191.763 161.589 193.449C162.248 193.639 162.894 193.791 163.553 193.918C168.851 194.932 173.781 193.88 173.781 193.88L175.125 174.666C175.125 174.666 174.707 172.384 172.97 170.154C171.323 168.037 168.471 165.971 163.642 165.971C154.111 165.971 149.827 174.666 150.917 181.218Z" fill="#F28475"/>
<g opacity="0.3">
<path d="M162.235 187.606C162.844 190.407 164.25 192.498 166.316 194.019C171.614 194.779 176.544 193.994 176.544 193.994L177.888 179.571C177.888 179.571 177.469 177.86 175.733 176.187C175.48 176.174 175.214 176.174 174.947 176.174C165.442 176.161 161.145 182.688 162.235 187.606Z" fill="#650000"/>
</g>
<g opacity="0.3">
<path d="M359.533 187.606C358.925 190.407 357.518 192.498 355.452 194.019C350.155 194.779 345.224 193.994 345.224 193.994L343.881 179.571C343.881 179.571 344.299 177.86 346.035 176.187C346.289 176.174 346.555 176.174 346.821 176.174C356.327 176.161 360.611 182.688 359.533 187.606Z" fill="#650000"/>
</g>
<path d="M168.446 196.377C166.24 196.377 163.617 196.148 161.019 195.375C154.175 193.36 150.106 188.696 148.927 181.548C148.205 177.188 149.548 172.372 152.438 168.975C154.377 166.694 157.888 163.969 163.629 163.969H163.642C172.806 163.981 176.456 170.737 177.102 174.311C177.305 175.401 176.57 176.453 175.48 176.656C174.39 176.858 173.338 176.136 173.135 175.046C172.996 174.311 171.525 168.012 163.629 167.999H163.617C159.422 167.999 156.887 169.951 155.505 171.586C153.363 174.108 152.362 177.669 152.894 180.901C153.832 186.567 156.773 189.938 162.159 191.522C167.546 193.107 173.3 191.928 173.363 191.915C174.453 191.687 175.518 192.384 175.746 193.474C175.974 194.564 175.29 195.629 174.2 195.857C174.035 195.882 171.678 196.377 168.446 196.377Z" fill="#650000"/>
<path d="M163.541 205.895C159.814 205.895 155.417 205.476 151.057 204.108C139.637 200.521 133.123 192.625 131.146 179.963C129.916 172.093 132.324 163.525 137.407 157.581C141.906 152.334 148.04 149.571 155.176 149.571C155.188 149.571 155.188 149.571 155.201 149.571C173.87 149.583 177.077 167.074 177.102 167.251C177.292 168.354 176.557 169.393 175.454 169.571C174.364 169.761 173.325 169.026 173.135 167.923C173.034 167.34 170.423 153.601 155.201 153.588C155.188 153.588 155.188 153.588 155.176 153.588C149.257 153.588 144.162 155.87 140.461 160.192C136.177 165.185 134.086 172.701 135.113 179.33C136.849 190.483 142.299 197.124 152.248 200.242C161.969 203.296 172.235 201.015 172.336 200.99C173.426 200.736 174.504 201.421 174.745 202.511C174.985 203.601 174.314 204.678 173.224 204.919C172.958 205.007 168.978 205.895 163.541 205.895Z" fill="#650000"/>
<path d="M164.681 158.075C165.429 171.991 169.219 186.782 176.253 196.731C169.802 197.91 166.646 204.146 165.733 210.609C165.188 214.424 165.416 218.328 166.215 221.319C169.029 231.953 177.761 238.34 190.144 242.789C190.942 243.068 191.741 243.347 192.577 243.626C190.41 242.65 188.369 241.357 186.494 239.849C179.89 234.551 175.378 226.63 174.973 220.432C174.96 220.204 174.947 219.963 174.947 219.748C174.947 219.481 174.947 219.228 174.96 218.974C174.96 218.759 174.973 218.556 174.985 218.353C175.29 213.258 177.71 209.672 180.435 207.2C184.339 203.677 188.914 202.447 188.914 202.447C188.914 202.447 170.461 167.733 189.016 137.746C189.168 137.505 189.307 137.252 189.472 137.023C199.89 120.763 213.603 114.489 226.164 114.299C226.189 114.299 226.214 114.299 226.24 114.299C242.488 114.083 256.772 124.045 259.408 135.743C259.699 137.011 259.851 138.304 259.851 139.596H260.27C260.27 126.605 275.225 114.578 292.753 114.299C305.63 114.096 319.901 120.243 330.649 137.023C330.801 137.264 330.953 137.505 331.105 137.746C349.66 167.733 331.219 202.447 331.219 202.447C331.219 202.447 331.245 202.447 331.295 202.473C331.84 202.625 335.491 203.753 338.913 206.528C341.878 208.936 344.679 212.599 345.123 217.96C345.174 218.531 345.199 219.126 345.186 219.748C345.148 222.054 344.502 224.64 343.374 227.251C341.688 231.116 338.925 235.058 335.44 238.29C333.108 240.47 330.434 242.32 327.557 243.626C341.219 239.152 350.928 232.637 353.919 221.319C354.755 218.176 354.958 214.057 354.312 210.064C353.298 203.791 350.129 197.872 343.868 196.719C350.902 186.769 354.692 171.979 355.44 158.062C357.784 114.311 322.981 77.8479 279.091 70.3448H279.078C275.149 69.1027 268.799 67.0242 260.333 64.0711C250.257 60.5604 243.337 53.0953 240.447 49.4832C239.649 48.4819 238.115 48.5706 237.418 49.6479C235.745 52.2335 233.096 58.7099 231.512 63.843C231.157 64.9836 229.839 65.5033 228.812 64.9203C226.911 63.843 223.996 60.2055 221.246 58.0889C220.295 57.3538 218.901 57.696 218.407 58.7987C216.937 62.0686 214.529 68.9633 214.858 78.7351C184.149 93.5131 162.831 123.525 164.681 158.075Z" fill="#B74729"/>
<g opacity="0.4">
<path d="M164.681 157.441C164.681 157.467 164.681 157.492 164.681 157.53C166.367 126.542 187.026 98.3419 218.496 83.9314C218.179 74.1596 218.47 68.7858 219.383 66.6059C219.839 65.5032 220.245 65.161 221.208 65.8961C223.958 68.0254 226.886 71.6502 228.774 72.7275C229.814 73.3105 231.132 72.7908 231.474 71.6502C233.058 66.5298 235.707 60.0533 237.38 57.4551C238.065 56.3778 239.611 56.3018 240.409 57.2904C243.312 60.9025 250.219 68.3676 260.295 71.8783C268.774 74.8314 275.111 76.9099 279.04 78.152C279.04 78.152 279.04 78.152 279.053 78.152C320.117 85.1608 353.234 117.543 355.402 157.517C355.402 157.492 355.402 157.454 355.402 157.429C357.746 113.678 322.943 77.2141 279.053 69.711H279.04C275.111 68.469 268.761 66.3904 260.295 63.4373C250.219 59.9266 243.299 52.4615 240.409 48.8494C239.611 47.8481 238.077 47.9368 237.38 49.0141C235.707 51.5997 233.058 58.0762 231.474 63.2092C231.119 64.3499 229.801 64.8695 228.774 64.2865C226.873 63.2092 223.958 59.5717 221.208 57.4551C220.257 56.72 218.863 57.0622 218.369 58.1649C216.899 61.4348 214.491 68.3295 214.82 78.1013C184.149 92.8793 162.831 122.892 164.681 157.441Z" fill="white"/>
</g>
<path d="M192.577 245.641C192.374 245.641 192.159 245.603 191.943 245.539C175.948 240.292 167.165 232.764 164.275 221.839C162.78 216.199 162.983 207.276 166.962 201.015C168.559 198.506 170.651 196.668 173.097 195.603C167.216 186.11 163.452 172.676 162.666 158.189C161.753 141.206 166.316 124.501 175.86 109.901C184.985 95.9337 198.141 84.5397 213.933 76.9225C214.934 76.4409 216.138 76.8592 216.62 77.8604C217.101 78.8617 216.683 80.0657 215.682 80.5473C184.212 95.7183 164.985 126.111 166.684 157.974C167.469 172.714 171.665 186.769 177.888 195.578L179.713 198.151L176.607 198.721C174.035 199.19 171.918 200.698 170.346 203.182C167.203 208.138 166.874 215.97 168.154 220.812C170.701 230.432 178.42 236.87 193.185 241.712C194.237 242.054 194.82 243.195 194.478 244.259C194.212 245.096 193.426 245.641 192.577 245.641Z" fill="#650000"/>
<path d="M327.519 245.641C326.67 245.641 325.884 245.096 325.605 244.247C325.263 243.195 325.833 242.054 326.898 241.699C341.676 236.858 349.394 230.406 351.929 220.799C353.209 215.945 352.88 208.113 349.724 203.157C348.152 200.673 346.048 199.177 343.463 198.708L340.358 198.138L342.183 195.565C348.494 186.63 352.588 172.929 353.387 157.961C355.503 118.354 326.112 82.778 283.463 73.2851L283.223 73.2344C281.981 72.9556 280.675 72.6894 279.268 72.4359L279.078 72.3979C278.001 72.1318 277.354 71.0418 277.608 69.9645C277.861 68.9125 278.901 68.2535 279.953 68.4563C279.965 68.4563 279.978 68.4563 279.991 68.4689C281.385 68.7224 282.665 68.9759 283.907 69.2547L284.11 69.2928C305.123 73.9188 324.097 85.1735 337.544 100.978C351.447 117.315 358.507 137.632 357.404 158.176C356.618 172.663 352.854 186.11 346.973 195.591C349.42 196.655 351.511 198.493 353.108 201.002C357.087 207.263 357.29 216.186 355.807 221.826C352.918 232.751 344.122 240.28 328.127 245.527C327.937 245.603 327.734 245.641 327.519 245.641Z" fill="#650000"/>
<g opacity="0.3">
<path d="M317.138 260.368C315.782 260.761 314.414 261.141 313.045 261.496C294.046 266.528 274.693 268.644 263.261 268.644C256.417 268.644 245.124 267.174 232.12 265.45C231.119 265.324 230.105 265.184 229.079 265.045C222.78 264.208 218.863 263.283 215.441 262.231C214.782 262.028 214.136 261.813 213.502 261.61C210.802 260.71 208.192 259.722 204.656 258.644C208.889 248.987 212.463 242.206 212.463 242.206H302.17C307.823 248.062 312.804 254.158 317.138 260.368Z" fill="#650000"/>
</g>
<path d="M174.744 219.76C174.744 219.786 174.82 220.026 174.96 220.419C175.961 223.144 180.258 233.613 186.481 239.836C187.634 240.989 188.851 242.003 190.131 242.789C190.638 243.106 191.157 243.385 191.677 243.626C192.843 244.006 194.034 244.373 195.251 244.716C195.644 244.83 196.024 244.931 196.417 245.045C202.83 246.807 206.328 248.315 210.612 249.62C214.034 250.672 217.963 251.61 224.25 252.434C238.533 254.323 251.055 256.021 258.432 256.021C269.851 256.021 289.217 253.892 308.216 248.873C316.327 246.718 324.363 244.044 331.676 240.787C331.676 240.787 331.676 240.787 331.688 240.774C332.981 240.001 334.223 239.177 335.376 238.29C339.28 235.311 342.296 231.674 343.31 227.251C343.805 225.109 343.83 222.789 343.272 220.28C343.234 220.102 344.781 218.784 344.73 218.62C344.705 218.493 344.667 218.366 344.629 218.252C343.171 212.511 341.029 208.848 338.849 206.516C335.833 203.296 332.753 202.599 331.232 202.46C330.636 202.409 330.281 202.435 330.281 202.435C330.281 202.435 348.317 167.72 329.749 137.733C329.597 137.492 329.445 137.239 329.293 137.011C318.9 120.801 305.237 114.514 292.703 114.286C276.391 113.994 262.006 123.994 259.357 135.731C259.065 136.998 258.913 138.291 258.913 139.584C258.913 126.542 243.818 114.451 226.189 114.286C226.163 114.286 226.138 114.286 226.113 114.286C213.324 114.185 199.205 120.37 188.547 137.011C188.394 137.252 188.242 137.492 188.09 137.733C169.535 167.72 187.989 202.435 187.989 202.435C187.989 202.435 184.199 202.498 180.397 207.187C178.471 209.557 176.519 213.106 175.061 218.417C175.011 218.594 174.96 218.772 174.922 218.962C174.884 219.228 174.808 219.494 174.744 219.76Z" fill="#FFCA9F"/>
<path d="M292.55 225.59C298.374 225.59 303.095 222.969 303.095 219.735C303.095 216.501 298.374 213.879 292.55 213.879C286.727 213.879 282.006 216.501 282.006 219.735C282.006 222.969 286.727 225.59 292.55 225.59Z" fill="#F28475"/>
<path d="M226.86 225.59C232.684 225.59 237.405 222.969 237.405 219.735C237.405 216.501 232.684 213.879 226.86 213.879C221.037 213.879 216.315 216.501 216.315 219.735C216.315 222.969 221.037 225.59 226.86 225.59Z" fill="#F28475"/>
<path d="M214.82 80.7502C213.743 80.7502 212.843 79.8884 212.805 78.7984C212.475 68.6211 214.998 61.3715 216.531 57.9621C217.025 56.8721 217.963 56.0863 219.117 55.7948C220.283 55.5033 221.487 55.7568 222.437 56.4792C223.831 57.5439 225.175 58.9 226.468 60.1928C227.621 61.3461 228.825 62.5501 229.611 63.0571C231.119 58.2156 233.781 51.5236 235.694 48.5579C236.366 47.5059 237.52 46.8469 238.762 46.7708C240.004 46.7075 241.22 47.2525 241.994 48.2284C243.248 49.8 250.067 57.8354 261.055 62.2079C276.302 68.2662 283.882 69.2548 283.958 69.2548C285.06 69.3942 285.846 70.3954 285.719 71.4981C285.58 72.6007 284.579 73.3865 283.476 73.2598C283.159 73.2218 275.403 72.2459 259.573 65.9468C247.976 61.3334 240.65 52.9431 238.99 50.9026C237.469 53.3741 234.959 59.4703 233.426 64.4259C233.071 65.5539 232.247 66.4538 231.144 66.8847C230.042 67.3283 228.825 67.2396 227.798 66.6566C226.544 65.9468 225.2 64.6034 223.641 63.0444C222.475 61.8784 221.284 60.687 220.143 59.7872C218.749 62.943 216.544 69.4576 216.848 78.6463C216.886 79.7616 216.012 80.6868 214.896 80.7249C214.858 80.7502 214.833 80.7502 214.82 80.7502Z" fill="#650000"/>
<path d="M262.538 213.094C262.082 213.22 261.651 212.84 261.727 212.384C261.93 210.99 262.564 208.582 264.591 208.265C267.278 207.846 267.57 210.178 267.329 210.876C267.05 211.687 266.366 212.194 265.022 212.472C264.198 212.637 263.235 212.891 262.538 213.094Z" fill="#650000"/>
<path d="M255.175 213.094C255.631 213.22 256.062 212.84 255.986 212.384C255.783 210.99 255.149 208.582 253.121 208.265C250.434 207.846 250.143 210.178 250.384 210.876C250.663 211.687 251.347 212.194 252.69 212.472C253.514 212.637 254.477 212.891 255.175 213.094Z" fill="#650000"/>
<path d="M251.423 224.995C252.919 226.148 254.452 227.035 256.036 227.479C257.621 227.91 259.23 227.935 260.726 227.491C261.093 227.377 261.448 227.213 261.816 227.099C262.145 226.896 262.5 226.718 262.83 226.516C263.134 226.275 263.476 226.085 263.768 225.806L264.186 225.388C264.338 225.261 264.49 225.121 264.604 224.957C265.656 223.727 266.404 222.168 266.949 220.394L266.974 220.318C267.215 219.532 268.052 219.089 268.837 219.317C269.458 219.507 269.864 220.064 269.889 220.685C269.991 222.967 269.382 225.413 267.976 227.479C266.607 229.545 264.439 231.167 261.981 231.851L261.055 232.054C260.739 232.118 260.434 232.194 260.118 232.194L259.167 232.244L258.698 232.27C258.546 232.257 258.381 232.244 258.229 232.219C257.608 232.143 256.974 232.118 256.379 231.915C255.783 231.75 255.175 231.611 254.63 231.319C252.374 230.356 250.549 228.683 249.345 226.769C248.939 226.123 249.129 225.261 249.775 224.855C250.282 224.538 250.916 224.589 251.36 224.931L251.423 224.995Z" fill="#650000"/>
<path d="M259.775 258.036C243.54 258.036 227.355 256.084 211.639 252.181C203.452 250.153 196.76 247.96 191.741 245.666C180.651 240.647 173.059 228.328 172.932 219.976C172.768 209.57 180.524 203.753 186.101 201.471C184.567 198.113 181.703 191.015 180.017 181.903C176.925 165.135 179.447 149.571 187.292 136.884L187.431 136.656C187.546 136.478 187.66 136.288 187.774 136.111C194.402 125.756 202.716 118.671 212.45 115.059C220.815 111.954 229.763 111.637 238.331 114.147C248.635 117.163 256.62 123.779 260.042 131.523C263.451 123.779 271.448 117.163 281.752 114.147C290.32 111.637 299.268 111.954 307.633 115.059C317.367 118.671 325.681 125.769 332.322 136.136C332.474 136.377 332.639 136.643 332.804 136.909C340.649 149.584 343.171 165.147 340.079 181.915C338.393 191.041 335.529 198.125 333.995 201.484C339.572 203.765 347.328 209.583 347.164 219.988C347.037 228.328 339.445 240.647 328.343 245.679C323.095 247.998 316.15 250.229 307.671 252.295C291.98 256.11 275.859 258.036 259.775 258.036ZM226.709 116.542C216.785 116.542 202.653 120.357 191.158 138.291C191.044 138.456 190.955 138.595 190.866 138.747L190.714 139.001C173.008 167.619 190.499 201.357 190.676 201.7L191.855 203.93L189.409 204.589C188.902 204.729 176.76 208.176 176.937 219.912C177.051 226.883 183.832 237.656 193.388 241.991C198.179 244.183 204.643 246.287 212.59 248.264C243.236 255.881 275.783 255.92 306.708 248.366C314.946 246.351 321.676 244.209 326.682 241.991C336.226 237.669 343.007 226.883 343.121 219.912C343.311 208.176 331.169 204.729 330.649 204.589L328.216 203.93L329.394 201.7C329.572 201.357 347.062 167.619 329.344 139.001C329.204 138.76 329.065 138.544 328.926 138.329C312.006 111.916 289.395 116.098 282.868 118.012C270.916 121.51 262.247 130.674 262.247 139.799C262.247 140.914 261.347 141.814 260.232 141.814C260.156 141.814 260.092 141.814 260.016 141.802C259.953 141.814 259.877 141.814 259.801 141.814C258.685 141.814 257.786 140.914 257.786 139.799C257.786 130.674 249.116 121.51 237.165 118.012C235.124 117.391 231.373 116.542 226.709 116.542Z" fill="#650000"/>
<g opacity="0.3">
<path d="M166.228 223.271C169.041 233.905 177.774 240.292 190.156 244.741C190.663 245.058 191.183 245.337 191.703 245.577C192.869 245.958 194.06 246.325 195.277 246.667C195.67 246.782 196.05 246.883 196.443 246.997C207.963 250.153 210.105 252.51 224.275 254.399C238.559 256.287 251.081 257.985 258.457 257.985C274.743 257.985 307.202 253.664 331.701 242.738C331.701 242.738 331.701 242.738 331.714 242.726C333.007 241.953 334.249 241.129 335.402 240.242C333.07 242.422 330.396 244.272 327.519 245.577C341.181 241.104 350.89 234.589 353.881 223.271C354.717 220.128 354.92 216.009 354.274 212.016C352.373 214.07 349.42 216.845 345.085 219.9C344.946 220.001 344.806 220.102 344.654 220.191C332.411 228.67 309.521 239.152 269.218 242.105C262.919 242.561 256.594 242.574 250.295 242.105C210.245 239.177 187.393 228.822 175.087 220.369C175.049 220.343 175.011 220.318 174.973 220.28C170.702 217.34 167.723 214.627 165.733 212.549C165.188 216.376 165.429 220.28 166.228 223.271Z" fill="#650000"/>
</g>
<path d="M225.922 164.678C222.285 164.412 219.015 165.92 216.518 168.645C213.312 172.131 211.385 177.631 211.588 183.968C211.854 192.143 215.618 199.469 220.827 203.106C222.804 204.488 224.984 205.337 227.253 205.514C235.542 206.135 241.955 197.504 241.6 186.224C241.22 174.944 234.211 165.299 225.922 164.678Z" fill="white"/>
<path d="M228.09 206.161C227.798 206.161 227.494 206.148 227.19 206.123C224.845 205.945 222.577 205.096 220.447 203.6C214.934 199.76 211.208 192.054 210.942 183.981C210.739 177.72 212.602 171.966 216.037 168.214C218.749 165.249 222.272 163.766 225.948 164.044C234.528 164.691 241.816 174.627 242.196 186.186C242.412 192.916 240.308 198.924 236.429 202.65C234.034 204.957 231.17 206.161 228.09 206.161ZM225.086 165.274C222.057 165.274 219.269 166.579 216.987 169.076C213.768 172.587 212.019 178.011 212.222 183.943C212.475 191.636 215.986 198.949 221.195 202.574C223.134 203.943 225.187 204.716 227.304 204.868C230.346 205.096 233.21 204.019 235.58 201.737C239.154 198.303 241.17 192.511 240.967 186.224C240.612 175.274 233.844 165.895 225.885 165.287C225.606 165.287 225.34 165.274 225.086 165.274Z" fill="#11116D"/>
<path d="M225.923 164.678C222.285 164.412 219.015 165.92 216.518 168.645C216.176 169.342 215.885 170.077 215.631 170.85C215.061 172.574 214.871 175.033 216.151 176.199C217.253 177.213 218.648 176.541 219.928 176.643C222.044 176.795 224.047 179.494 224.085 182.232C224.123 184.982 222.171 187.251 220.054 186.934C218.584 186.718 216.924 185.489 215.745 186.478C214.883 187.213 214.769 188.822 214.883 190.217C215.302 195.007 217.558 199.557 220.511 202.777C220.599 202.878 220.701 202.979 220.802 203.081C222.779 204.462 224.959 205.311 227.228 205.489C235.517 206.11 241.93 197.479 241.575 186.199C241.22 174.944 234.211 165.299 225.923 164.678Z" fill="#1595FF"/>
<path d="M232.553 204.513C239.22 203.667 243.616 195.033 242.373 185.228C241.129 175.422 234.717 168.158 228.05 169.004C221.384 169.849 216.987 178.483 218.231 188.289C219.474 198.094 225.886 205.358 232.553 204.513Z" fill="#640005"/>
<path d="M220.067 176.047C218.774 175.958 217.38 176.617 216.29 175.603C215.01 174.425 215.2 171.966 215.771 170.255C216.024 169.494 216.316 168.747 216.658 168.05C213.451 171.535 211.525 177.036 211.727 183.373C211.994 191.547 215.758 198.873 220.967 202.511C220.866 202.409 220.777 202.308 220.675 202.206C217.722 198.987 215.466 194.424 215.048 189.646C214.921 188.239 215.035 186.643 215.91 185.907C217.089 184.919 218.736 186.148 220.219 186.364C222.336 186.668 224.288 184.399 224.25 181.662C224.186 178.886 222.184 176.199 220.067 176.047Z" fill="white"/>
<path d="M225.099 164.653C225.378 164.653 225.644 164.666 225.923 164.678C234.211 165.299 241.22 174.944 241.588 186.212C241.943 197.099 235.96 205.527 228.09 205.527C227.811 205.527 227.532 205.514 227.253 205.502C224.985 205.337 222.792 204.475 220.828 203.094C215.618 199.456 211.854 192.143 211.588 183.956C211.385 177.631 213.312 172.131 216.518 168.633C218.825 166.123 221.791 164.653 225.099 164.653ZM225.099 160.61C220.777 160.61 216.67 162.498 213.54 165.92C209.51 170.318 207.317 176.934 207.558 184.082C207.862 193.334 212.057 201.89 218.521 206.389C221.144 208.239 223.983 209.291 226.949 209.507C227.329 209.532 227.71 209.545 228.09 209.545C232.234 209.545 236.201 207.796 239.281 204.614C243.552 200.204 245.859 193.449 245.618 186.06C245.187 172.587 236.67 161.421 226.227 160.635C225.847 160.623 225.466 160.61 225.099 160.61Z" fill="#640005"/>
<path d="M293.628 163.766C297.253 163.398 300.561 164.818 303.133 167.479C306.429 170.876 308.52 176.326 308.482 182.663C308.444 190.838 304.882 198.265 299.762 202.042C297.836 203.474 295.668 204.386 293.4 204.615C285.136 205.464 278.482 196.997 278.546 185.717C278.622 174.437 285.364 164.602 293.628 163.766Z" fill="white"/>
<path d="M292.272 205.299C289.319 205.299 286.531 204.171 284.148 202.016C280.155 198.392 277.899 192.46 277.937 185.718C278.001 174.146 285.01 164.019 293.577 163.145C297.253 162.777 300.814 164.159 303.603 167.049C307.151 170.699 309.154 176.389 309.129 182.663C309.091 190.749 305.567 198.544 300.155 202.536C298.064 204.082 295.821 204.995 293.489 205.236C293.07 205.274 292.665 205.299 292.272 205.299ZM293.691 164.387C285.745 165.198 279.243 174.767 279.18 185.718C279.142 192.004 281.321 197.745 284.984 201.079C287.418 203.284 290.307 204.298 293.349 203.981C295.466 203.765 297.494 202.942 299.395 201.522C304.49 197.758 307.81 190.344 307.861 182.65C307.886 176.706 306.011 171.332 302.69 167.91C300.181 165.299 296.987 164.045 293.691 164.387Z" fill="#11116D"/>
<path d="M293.628 163.766C297.253 163.398 300.561 164.818 303.134 167.479C303.489 168.164 303.805 168.899 304.072 169.659C304.68 171.37 304.933 173.816 303.691 175.02C302.627 176.06 301.207 175.439 299.927 175.565C297.811 175.781 295.884 178.518 295.922 181.269C295.96 184.019 297.963 186.224 300.079 185.857C301.549 185.603 303.172 184.323 304.376 185.286C305.263 185.996 305.415 187.593 305.339 189C305.06 193.804 302.918 198.404 300.054 201.712C299.965 201.814 299.864 201.928 299.775 202.016C297.849 203.449 295.681 204.361 293.413 204.589C285.149 205.438 278.495 196.972 278.559 185.692C278.622 174.437 285.365 164.602 293.628 163.766Z" fill="#1595FF"/>
<path d="M301.966 187.146C302.943 177.311 298.314 168.8 291.628 168.135C284.941 167.471 278.728 174.905 277.751 184.74C276.773 194.576 281.402 203.087 288.089 203.752C294.776 204.416 300.989 196.982 301.966 187.146Z" fill="#640005"/>
<path d="M299.788 174.957C301.068 174.83 302.487 175.451 303.552 174.412C304.794 173.195 304.541 170.749 303.932 169.051C303.666 168.29 303.349 167.568 302.994 166.871C306.29 170.268 308.381 175.717 308.343 182.054C308.305 190.229 304.743 197.656 299.623 201.433C299.712 201.332 299.813 201.23 299.902 201.129C302.766 197.821 304.895 193.208 305.187 188.417C305.276 187.01 305.111 185.413 304.224 184.703C303.02 183.74 301.397 185.02 299.927 185.274C297.823 185.641 295.808 183.423 295.77 180.686C295.745 177.923 297.684 175.172 299.788 174.957Z" fill="white"/>
<path d="M294.756 163.703C297.937 163.703 300.84 165.084 303.146 167.479C306.442 170.876 308.533 176.326 308.495 182.663C308.457 190.838 304.895 198.265 299.775 202.042C297.848 203.474 295.681 204.386 293.412 204.615C293.032 204.653 292.652 204.678 292.272 204.678C284.541 204.678 278.495 196.49 278.546 185.73C278.609 174.45 285.352 164.628 293.615 163.779C294.008 163.715 294.388 163.703 294.756 163.703ZM294.756 159.672C294.249 159.672 293.729 159.697 293.222 159.748C282.804 160.813 274.591 172.207 274.528 185.692C274.49 192.954 276.911 199.596 281.182 203.88C284.312 207.023 288.153 208.696 292.285 208.696C292.791 208.696 293.311 208.67 293.831 208.62C296.784 208.315 299.597 207.187 302.183 205.261C308.507 200.584 312.474 191.928 312.525 182.676C312.563 175.527 310.206 168.962 306.036 164.666C302.931 161.447 298.926 159.672 294.756 159.672Z" fill="#640005"/>
<path d="M145.645 312.725C145.252 313.016 145.15 313.65 145.455 314.119L147.711 317.554C143.718 332.04 157.178 354.043 177.71 346.375C178.166 346.21 178.623 345.994 179.066 345.741C179.269 345.627 179.447 345.5 179.624 345.373C180.131 345.006 180.549 344.588 180.866 344.169C180.993 343.992 181.107 343.827 181.208 343.65C181.348 343.384 181.462 343.117 181.538 342.851L182.412 342.015C182.577 341.863 182.64 341.609 182.59 341.356L182.374 340.43C182.311 340.177 182.133 339.987 181.918 339.936L180.917 339.733C180.866 339.67 180.815 339.607 180.765 339.556C179.751 338.415 177.913 337.668 175.416 337.807C164.947 337.477 157.977 330.976 153.262 320.494C152.083 317.148 149.954 315.602 149.954 315.602L148.915 312.383C148.75 311.876 148.255 311.609 147.825 311.787L145.797 312.661C145.733 312.661 145.683 312.699 145.645 312.725Z" fill="white"/>
</svg>
