<svg width="174" height="61" viewBox="0 0 174 61" fill="none" xmlns="http://www.w3.org/2000/svg">
<path d="M84.7295 12.9399V24.948H92.4101C97.4479 24.948 100.041 22.8338 100.041 18.9522C100.041 15.0706 97.4314 12.9399 92.4101 12.9399H84.7295ZM89.3709 15.913H91.6833C93.9957 15.913 95.0529 16.7059 95.0529 18.8366C95.0529 21.0004 93.9792 21.7602 91.6833 21.7602H89.3709V15.913Z" fill="#1E2632"/>
<path d="M102.005 24.948H106.663V12.9564H102.005V24.948Z" fill="#1E2632"/>
<path d="M121.899 23.8744L122.395 24.948H124.476V18.1429H117.786V20.7361H119.719C119.504 21.6776 118.447 22.3053 116.845 22.3053C114.78 22.3053 113.574 21.083 113.574 18.9522C113.574 16.838 114.846 15.5166 116.779 15.5166C117.951 15.5166 118.761 16.0121 119.24 16.9536H124.327C123.98 14.3439 121.271 12.6426 116.647 12.6426C111.295 12.6426 108.586 14.8064 108.586 18.9522C108.586 23.0981 111.295 25.2619 116.647 25.2619C119.042 25.2619 120.743 24.882 121.899 23.8744Z" fill="#1E2632"/>
<path d="M126.716 24.948H131.374V12.9564H126.716V24.948Z" fill="#1E2632"/>
<path d="M137.031 24.948H141.688V15.9956H146.032V12.9564H132.703V15.9956H137.031V24.948Z" fill="#1E2632"/>
<path d="M144.595 24.948H149.567L149.996 23.7588H155.1L155.497 24.948H160.518L155.678 12.9564H149.782L144.595 24.948ZM151.103 20.8187L152.623 16.5902L154.06 20.8187H151.103Z" fill="#1E2632"/>
<path d="M161.364 24.948H173.339V21.6611H166.022V12.9564H161.364V24.948Z" fill="#1E2632"/>
<path d="M107.19 48.0999H114.06V41.8067H120.465C125.55 41.8067 128.313 39.6349 128.313 35.9824C128.313 32.3545 125.55 30.1828 120.465 30.1828H107.19V48.0999ZM117.825 34.0327C119.878 34.0327 120.807 34.4276 120.807 35.9577C120.807 37.5125 119.878 37.9074 117.825 37.9074H114.06V34.0327H117.825Z" fill="#1E2632"/>
<path d="M130.634 48.0999H150.021V43.4848H137.504V41.1156H147.16V36.7228H137.504V34.5757H149.434V30.1828H130.634V48.0999Z" fill="#1E2632"/>
<path d="M151.116 42.6458C151.165 46.4217 154.686 48.6428 161.433 48.6428C169.574 48.6428 173.485 46.7672 173.485 42.2756C173.485 39.3141 171.554 37.6112 167.643 37.0436L161.384 36.1305C159.599 35.8837 158.744 35.6616 158.744 34.8718C158.744 34.1808 159.599 33.6872 161.237 33.6872C163.364 33.6872 164.513 34.2795 164.684 35.3901H172.679C172.385 31.3921 168.743 29.7139 161.531 29.7139C154.588 29.7139 151.312 31.3674 151.312 35.4641C151.312 38.475 153.463 40.2766 157.717 40.7948L162.851 41.4365C164.489 41.6339 165.32 42.1028 165.32 42.8679C165.32 43.7316 164.367 44.1512 162.533 44.1512C160.651 44.1512 159.551 43.5836 159.428 42.6458H151.116Z" fill="#1E2632"/>
<path fill-rule="evenodd" clip-rule="evenodd" d="M89.7048 48.0999L90.3404 46.323H97.8946L98.4814 48.0999H105.913L98.7503 30.1828H90.0226L87.4088 36.2836C88.0254 39.3874 88.0425 43.4883 86.4092 48.0999H89.7048ZM94.2275 35.6122L91.9784 41.9301H96.3545L94.2275 35.6122Z" fill="#1E2632"/>
<path d="M66.7396 60.5C68.6102 59.2529 69.7188 57.7286 70.2038 55.858C70.6195 54.4723 70.5502 52.2552 69.9266 50.5231C69.892 50.4538 69.84 50.3672 69.7881 50.2806C69.7361 50.194 69.6841 50.1074 69.6495 50.0381C69.3723 49.6224 69.0952 49.276 68.7488 49.0681C68.4716 48.8603 68.056 48.6524 67.6403 48.5831C67.4324 48.5139 67.2245 48.3753 67.1553 48.1674C67.086 47.9596 67.086 47.7517 67.2245 47.5439C68.7488 45.3268 69.9266 42.1397 70.5502 38.6062L70.758 37.1513L70.777 36.9814C70.8394 36.4255 70.8966 35.9163 70.8966 35.3499V34.8649V33.2714C70.6195 23.7102 64.5917 14.7725 55.0998 10.1305C54.9613 10.0612 54.892 9.99192 54.8227 9.85335C54.7534 9.71478 54.7534 9.6455 54.7534 9.50693C54.8227 6.52771 54.1299 4.44919 53.7141 3.40993C53.3678 3.68702 52.9522 4.10264 52.6058 4.44902L52.6056 4.44917L52.6056 4.44919C52.4269 4.60556 52.2626 4.76194 52.108 4.90902C51.7833 5.21811 51.5016 5.48619 51.2199 5.62702C50.8735 5.83487 50.4578 5.83487 50.1114 5.6963C49.765 5.55774 49.4878 5.21132 49.3493 4.8649C48.8643 3.27136 48.0329 1.33141 47.5479 0.5C46.9936 1.19284 44.5687 3.89492 40.8273 5.34988C37.8481 6.52771 35.7003 7.15127 34.4532 7.42841C33.7603 7.63626 33.2753 7.70554 33.1368 7.70554C19.9035 10.5462 10.6195 21.0774 10.2038 33.1328V34.7263V35.142C10.2038 35.7767 10.2619 36.3533 10.3249 36.9783L10.3423 37.1513L10.5502 38.6062C11.1044 42.0704 12.2823 45.1882 13.8065 47.4053C13.9451 47.5439 13.9451 47.821 13.8758 48.0289C13.8065 48.2367 13.5987 48.3753 13.3908 48.4446C12.7673 48.5139 12.2823 48.791 11.8666 49.2067C11.6587 49.3453 11.4509 49.5531 11.3123 49.8303L10.8966 50.6617C10.273 52.2552 10.2038 54.2644 10.5502 55.5808C11.0352 57.4515 12.1437 58.9757 14.0144 60.2229C12.7673 58.56 12.0744 56.7587 12.0744 55.3037C12.0051 51.9088 14.5687 50.0381 16.37 49.276C15.8851 48.1674 14.9844 45.8811 14.4301 42.9018C13.4601 37.4284 14.2915 32.3707 16.855 28.2829C16.8815 28.23 16.8978 28.1872 16.9118 28.1506L16.9118 28.1506C16.9344 28.0914 16.9508 28.0486 16.9936 28.0058C19.1414 24.6801 21.9128 22.3938 25.0998 21.2159C27.8019 20.246 30.7811 20.1767 33.5525 21.0081C36.8781 22.0473 39.3723 24.1259 40.5502 26.5508C41.728 24.0566 44.2915 22.0473 47.5479 21.0774C50.3885 20.3152 53.2984 20.3845 56.0005 21.4238C59.1183 22.6016 61.8204 24.888 63.9682 28.2829C64.0028 28.3176 64.0202 28.3522 64.0375 28.3868C64.0548 28.4215 64.0721 28.4561 64.1068 28.4908L64.176 28.56C66.7396 32.7171 67.5017 37.7748 66.4624 43.2483C65.9081 46.2275 64.9382 48.5139 64.4532 49.6224C66.2546 50.3845 68.7488 52.2552 68.6795 55.6501C68.6795 57.1051 67.9174 58.9065 66.7396 60.5ZM75.5386 48.8603C78.795 47.821 80.5271 45.6732 81.0814 42.0704C81.3585 39.9226 80.6656 37.4977 79.4878 35.9042C78.2407 34.5185 76.6472 33.7564 74.7072 33.7564H74.6379C73.668 33.7564 72.9058 33.8949 72.2823 34.1721C72.2823 34.3799 72.265 34.6051 72.2476 34.8303L72.2476 34.8306C72.2303 35.0556 72.213 35.2807 72.213 35.4885C71.9359 40.1998 70.6887 44.5647 68.7488 47.6132C69.5109 47.9596 70.2038 48.5831 70.6887 49.3453C71.9359 49.4145 73.7372 49.4146 75.5386 48.8603ZM5.631 48.8603C2.37465 47.821 0.642552 45.6732 0.0882797 42.0704C-0.258141 39.9226 0.4347 37.4977 1.82038 35.9042C2.99821 34.5185 4.66103 33.7564 6.60098 33.7564C7.43239 33.7564 8.12523 33.8949 8.74879 34.1028V35.2113C8.95664 39.9226 10.2038 44.2875 12.0744 47.4053C11.3123 47.7517 10.6195 48.306 10.0652 49.1374C10.0224 49.1802 10.006 49.2231 9.98341 49.2822C9.96944 49.3188 9.95308 49.3616 9.92662 49.4146C8.74879 49.4146 7.15525 49.3453 5.631 48.8603Z" fill="#FFCA9F"/>
<path d="M66.7396 60.5C68.6102 59.2529 69.7188 57.7286 70.2038 55.858C70.6195 54.4723 70.5502 52.2552 69.9266 50.5231C69.892 50.4538 69.84 50.3672 69.7881 50.2806C69.7361 50.194 69.6841 50.1074 69.6495 50.0381C69.3723 49.6224 69.0952 49.276 68.7488 49.0681C68.4716 48.8603 68.056 48.6524 67.6403 48.5831C67.4324 48.5139 67.2245 48.3753 67.1553 48.1674C67.086 47.9596 67.086 47.7517 67.2245 47.5439C68.7488 45.3268 69.9266 42.1397 70.5502 38.6062L70.758 37.1513L70.777 36.9814C70.8394 36.4255 70.8966 35.9163 70.8966 35.3499V34.8649V33.2714C70.6195 23.7102 64.5917 14.7725 55.0998 10.1305C54.9613 10.0612 54.892 9.99192 54.8227 9.85335C54.7534 9.71478 54.7534 9.6455 54.7534 9.50693C54.8227 6.52771 54.1299 4.44919 53.7141 3.40993C53.3678 3.68702 52.9522 4.10264 52.6058 4.44902L52.6056 4.44917L52.6056 4.44919C52.4269 4.60556 52.2626 4.76194 52.108 4.90902C51.7833 5.21811 51.5016 5.48619 51.2199 5.62702C50.8735 5.83487 50.4578 5.83487 50.1114 5.6963C49.765 5.55774 49.4878 5.21132 49.3493 4.8649C48.8643 3.27136 48.0329 1.33141 47.5479 0.5C46.9936 1.19284 44.5687 3.89492 40.8273 5.34988C37.8481 6.52771 35.7003 7.15127 34.4532 7.42841C33.7603 7.63626 33.2753 7.70554 33.1368 7.70554C19.9035 10.5462 10.6195 21.0774 10.2038 33.1328V34.7263V35.142C10.2038 35.7767 10.2619 36.3533 10.3249 36.9783L10.3423 37.1513L10.5502 38.6062C11.1044 42.0704 12.2823 45.1882 13.8065 47.4053C13.9451 47.5439 13.9451 47.821 13.8758 48.0289C13.8065 48.2367 13.5987 48.3753 13.3908 48.4446C12.7673 48.5139 12.2823 48.791 11.8666 49.2067C11.6587 49.3453 11.4509 49.5531 11.3123 49.8303L10.8966 50.6617C10.273 52.2552 10.2038 54.2644 10.5502 55.5808C11.0352 57.4515 12.1437 58.9757 14.0144 60.2229C12.7673 58.56 12.0744 56.7587 12.0744 55.3037C12.0051 51.9088 14.5687 50.0381 16.37 49.276C15.8851 48.1674 14.9844 45.8811 14.4301 42.9018C13.4601 37.4284 14.2915 32.3707 16.855 28.2829C16.8815 28.23 16.8978 28.1872 16.9118 28.1506L16.9118 28.1506C16.9344 28.0914 16.9508 28.0486 16.9936 28.0058C19.1414 24.6801 21.9128 22.3938 25.0998 21.2159C27.8019 20.246 30.7811 20.1767 33.5525 21.0081C36.8781 22.0473 39.3723 24.1259 40.5502 26.5508C41.728 24.0566 44.2915 22.0473 47.5479 21.0774C50.3885 20.3152 53.2984 20.3845 56.0005 21.4238C59.1183 22.6016 61.8204 24.888 63.9682 28.2829C64.0028 28.3176 64.0202 28.3522 64.0375 28.3868C64.0548 28.4215 64.0721 28.4561 64.1068 28.4908L64.176 28.56C66.7396 32.7171 67.5017 37.7748 66.4624 43.2483C65.9081 46.2275 64.9382 48.5139 64.4532 49.6224C66.2546 50.3845 68.7488 52.2552 68.6795 55.6501C68.6795 57.1051 67.9174 58.9065 66.7396 60.5ZM75.5386 48.8603C78.795 47.821 80.5271 45.6732 81.0814 42.0704C81.3585 39.9226 80.6656 37.4977 79.4878 35.9042C78.2407 34.5185 76.6472 33.7564 74.7072 33.7564H74.6379C73.668 33.7564 72.9058 33.8949 72.2823 34.1721C72.2823 34.3799 72.265 34.6051 72.2476 34.8303L72.2476 34.8306C72.2303 35.0556 72.213 35.2807 72.213 35.4885C71.9359 40.1998 70.6887 44.5647 68.7488 47.6132C69.5109 47.9596 70.2038 48.5831 70.6887 49.3453C71.9359 49.4145 73.7372 49.4146 75.5386 48.8603ZM5.631 48.8603C2.37465 47.821 0.642552 45.6732 0.0882797 42.0704C-0.258141 39.9226 0.4347 37.4977 1.82038 35.9042C2.99821 34.5185 4.66103 33.7564 6.60098 33.7564C7.43239 33.7564 8.12523 33.8949 8.74879 34.1028V35.2113C8.95664 39.9226 10.2038 44.2875 12.0744 47.4053C11.3123 47.7517 10.6195 48.306 10.0652 49.1374C10.0224 49.1802 10.006 49.2231 9.98341 49.2822C9.96944 49.3188 9.95308 49.3616 9.92662 49.4146C8.74879 49.4146 7.15525 49.3453 5.631 48.8603Z" stroke="white"/>
<path d="M23.0318 52.7746C23.0372 51.7221 21.5067 50.8611 19.6134 50.8515C17.7201 50.8419 16.181 51.6873 16.1757 52.7398C16.1703 53.7923 17.7008 54.6533 19.5941 54.6629C21.4874 54.6725 23.0265 53.827 23.0318 52.7746Z" fill="white" fill-opacity="0.5"/>
<path d="M65.0851 52.8991C65.0904 51.8466 63.5599 50.9856 61.6666 50.976C59.7734 50.9664 58.2342 51.8119 58.2289 52.8643C58.2236 53.9168 59.754 54.7778 61.6473 54.7874C63.5406 54.797 65.0797 53.9516 65.0851 52.8991Z" fill="white" fill-opacity="0.5"/>
<path d="M18.4385 41.3628C18.4385 46.2847 22.4433 50.2895 27.3651 50.2895C28.1926 50.2895 28.9914 50.1748 29.7544 49.9635C30.0911 49.8704 30.4242 49.7557 30.7431 49.6268C31.635 49.2614 32.4553 48.7563 33.1753 48.1366C33.838 47.5671 34.4183 46.9044 34.8911 46.1629C35.7795 44.7766 36.2953 43.1288 36.2953 41.3628C36.2953 36.441 32.2905 32.4326 27.3651 32.4326C27.2111 32.4326 27.0606 32.4362 26.9066 32.4434C24.983 32.5401 23.217 33.2529 21.8021 34.3813C21.3328 34.7574 20.903 35.1765 20.5161 35.6386C19.8606 36.4231 19.334 37.3222 18.9794 38.3001C18.6283 39.2601 18.4385 40.2882 18.4385 41.3628Z" fill="#1E2632"/>
<path d="M35.368 42.8027C35.5865 42.8027 35.8015 42.6953 35.9304 42.4982C37.1698 40.6033 38.8176 39.5573 40.5657 39.5573C42.3138 39.5573 43.9579 40.6033 45.2009 42.4982C45.4051 42.8099 45.8206 42.8959 46.1323 42.6917C46.4439 42.4875 46.5299 42.072 46.3257 41.7603C44.8284 39.4714 42.783 38.2104 40.5657 38.2104C38.3484 38.2104 36.303 39.4714 34.8056 41.7603C34.6015 42.072 34.691 42.4875 34.9991 42.6917C35.1137 42.7705 35.2427 42.8027 35.368 42.8027Z" fill="#1E2632"/>
<path d="M44.8389 41.3628C44.8389 46.2847 48.8437 50.2895 53.7655 50.2895C54.593 50.2895 55.3918 50.1748 56.1548 49.9635C56.4915 49.8704 56.8246 49.7557 57.1434 49.6268C58.0354 49.2614 58.8557 48.7563 59.5757 48.1366C60.2384 47.5671 60.8187 46.9044 61.2915 46.1629C62.1799 44.7766 62.6957 43.1288 62.6957 41.3628C62.6957 36.441 58.6909 32.4326 53.7655 32.4326C53.6115 32.4326 53.461 32.4362 53.307 32.4434C51.3834 32.5401 49.6174 33.2529 48.2025 34.3813C47.7332 34.7574 47.3034 35.1765 46.9165 35.6386C46.261 36.4231 45.7344 37.3222 45.3798 38.3001C45.0287 39.2601 44.8389 40.2882 44.8389 41.3628Z" fill="#1E2632"/>
<g opacity="0.7">
<path d="M45.3799 38.3036L56.1549 49.967C56.4916 49.8738 56.8248 49.7592 57.1436 49.6303L46.9166 35.6421C46.2611 36.4266 45.7345 37.3257 45.3799 38.3036Z" fill="white" fill-opacity="0.75"/>
</g>
<path d="M44.1655 41.3628C44.1655 36.0684 48.4712 31.7627 53.7656 31.7627C59.06 31.7627 63.3657 36.0684 63.3657 41.3628C63.3657 46.6571 59.06 50.9628 53.7656 50.9628C48.4712 50.9628 44.1655 46.6571 44.1655 41.3628ZM45.5088 41.3628C45.5088 45.9156 49.2127 49.6196 53.7656 49.6196C58.3185 49.6196 62.0224 45.9156 62.0224 41.3628C62.0224 36.8099 58.3185 33.106 53.7656 33.106C49.2127 33.106 45.5088 36.8099 45.5088 41.3628Z" fill="#1E2632"/>
<g opacity="0.7">
<path d="M21.8022 34.3847L33.1755 48.1365C33.8382 47.5669 34.4185 46.9042 34.8913 46.1627L26.9068 32.4468C24.9832 32.5435 23.2172 33.2563 21.8022 34.3847Z" fill="white" fill-opacity="0.75"/>
</g>
<g opacity="0.7">
<path d="M18.98 38.3036L29.755 49.967C30.0917 49.8738 30.4248 49.7592 30.7437 49.6303L20.5203 35.6421C19.8612 36.4266 19.3382 37.3257 18.98 38.3036Z" fill="white" fill-opacity="0.75"/>
</g>
<path d="M17.7651 41.3628C17.7651 36.0684 22.0708 31.7627 27.3652 31.7627C32.6596 31.7627 36.9653 36.0684 36.9653 41.3628C36.9653 46.6571 32.6596 50.9628 27.3652 50.9628C22.0708 50.9628 17.7651 46.6571 17.7651 41.3628ZM19.112 41.3628C19.112 45.9156 22.8159 49.6196 27.3688 49.6196C31.9217 49.6196 35.6256 45.9156 35.6256 41.3628C35.6256 36.8099 31.9217 33.106 27.3688 33.106C22.8159 33.106 19.112 36.8099 19.112 41.3628Z" fill="#1E2632"/>
<g opacity="0.7">
<path d="M48.2026 34.3847L59.5759 48.1365C60.2386 47.5669 60.8189 46.9042 61.2917 46.1627L53.3072 32.4468C51.3836 32.5435 49.6176 33.2563 48.2026 34.3847Z" fill="white" fill-opacity="0.75"/>
</g>
</svg>
